<svg width="97" height="31" viewBox="0 0 97 31" fill="none" xmlns="http://www.w3.org/2000/svg">
    <path fill-rule="evenodd" clip-rule="evenodd" d="M0 0.568848H19.6754V21.7082H0V0.568848Z" fill="#ED1C24"/>
    <path fill-rule="evenodd" clip-rule="evenodd" d="M14.1265 13.9729V11.3967L13.1175 11.9119V14.4881C11.998 14.4036 10.818 15.8339 10.0905 16.0338V3.61651C11.0454 3.13616 12.0659 2.80611 13.1175 2.63756V9.85093L14.1265 9.33569V4.18328C14.1265 4.18328 16.5188 3.37693 17.6529 2.12695V12.2076C17.6529 12.2076 16.1767 13.9868 14.1265 13.9729ZM6.05453 10.3662L5.04553 11.3967V18.0948C4.71622 18.5974 4.2653 19.0045 3.73653 19.2767C3.20777 19.5489 2.61911 19.6769 2.02764 19.6482L2.01855 9.77777C2.8506 9.665 3.65369 9.39003 4.38415 8.96781C4.85159 8.6659 5.24935 8.26405 5.55003 7.78997V5.729C5.55003 5.729 7.3753 3.52635 9.08151 3.15744C9.08151 7.67095 9.07242 11.7589 9.07242 16.2729C9.07242 16.2729 6.86273 16.5305 6.05705 17.5795V10.3662H6.05453Z" fill="white"/>
    <path fill-rule="evenodd" clip-rule="evenodd" d="M24.8217 8.21757C24.7936 8.8198 24.9026 9.42048 25.14 9.97248L27.0238 8.76734C26.9701 8.61448 26.935 8.45544 26.9194 8.29383C26.9053 8.13153 26.9007 7.91151 26.9007 7.62916V2.56899H29.0882V8.76888H31.1667V0.766166H24.8217V8.21757ZM33.8703 5.19002C33.8562 5.06678 33.8704 4.94187 33.9118 4.82521C33.9532 4.70855 34.0206 4.60333 34.1088 4.51792C34.1969 4.43251 34.3033 4.36926 34.4196 4.33317C34.5358 4.29707 34.6587 4.28913 34.7784 4.30999C34.9115 4.30346 35.0446 4.31964 35.1724 4.3579C35.2274 4.37228 35.2756 4.40602 35.3085 4.45315C35.3415 4.50029 35.3571 4.55779 35.3526 4.61552C35.3332 4.75391 35.284 4.88619 35.2086 5.00281C35.1331 5.11944 35.0332 5.21753 34.9162 5.28998C34.6283 5.51874 34.3218 5.72196 34 5.89744C33.9198 5.67036 33.8767 5.43138 33.8724 5.19002H33.8703ZM31.9674 5.12304C31.9624 6.08092 32.3245 7.00278 32.9764 7.69151C33.2805 8.03249 33.6514 8.30446 34.065 8.48978C34.4786 8.6751 34.9256 8.76966 35.3773 8.76734H36.5023L36.972 7.17009H36.2319C35.8608 7.17429 35.4903 7.13976 35.126 7.06703C35.4536 6.87055 35.7336 6.68868 35.966 6.5214C36.1973 6.35397 36.4105 6.16171 36.6017 5.94793C37.0149 5.52306 37.2484 4.94955 37.252 4.3507C37.252 3.26045 36.5165 2.71532 35.0453 2.71532H34.6594C34.1305 2.69448 33.6028 2.78208 33.1076 2.97294C32.3301 3.31042 31.979 3.9993 31.9694 5.12304H31.9674ZM40.6705 8.76734V4.48671H42.3979L41.9438 2.85134H37.5305L37.0845 4.48671H38.7998V8.76888H40.6694L40.6705 8.76734ZM44.1636 5.19002C44.1495 5.06678 44.1637 4.94187 44.2051 4.82521C44.2465 4.70855 44.3139 4.60333 44.402 4.51792C44.4902 4.43251 44.5966 4.36926 44.7128 4.33317C44.8291 4.29707 44.9519 4.28913 45.0717 4.30999C45.2047 4.30342 45.3379 4.31961 45.4657 4.3579C45.5206 4.37228 45.5688 4.40602 45.6018 4.45315C45.6347 4.50029 45.6503 4.55779 45.6458 4.61552C45.6266 4.75394 45.5774 4.88627 45.502 5.00291C45.4265 5.11955 45.3266 5.21761 45.2094 5.28998C44.9218 5.51886 44.6154 5.72209 44.2938 5.89744C44.2132 5.67046 44.1699 5.43143 44.1656 5.19002H44.1636ZM42.2601 5.12304C42.2551 6.08092 42.6173 7.00278 43.2691 7.69151C43.5735 8.03241 43.9444 8.30431 44.3581 8.48962C44.7717 8.67494 45.2189 8.76954 45.6705 8.76734H46.7951L47.2653 7.17009H46.5247C46.1536 7.17429 45.783 7.13976 45.4188 7.06703C45.746 6.87055 46.0261 6.68868 46.2588 6.5214C46.4902 6.35384 46.7034 6.1616 46.895 5.94793C47.3082 5.52306 47.5417 4.94955 47.5453 4.3507C47.5453 3.26045 46.8095 2.71532 45.3381 2.71532H44.9511C44.4222 2.69454 43.8945 2.78213 43.3993 2.97294C42.6229 3.31042 42.2718 3.9993 42.2622 5.12304H42.2601ZM50.603 4.44859C50.8242 4.4438 51.0434 4.49123 51.2437 4.58718C51.348 4.66116 51.4296 4.76376 51.4791 4.88311C51.5287 5.00246 51.5441 5.13368 51.5237 5.26163C51.5204 5.55961 51.454 5.85334 51.329 6.12261C51.2148 6.39759 51.0336 6.63818 50.8027 6.82152C50.5718 7.00486 50.2988 7.12484 50.0097 7.17009V4.44859H50.603ZM50.0097 8.89667C51.0025 8.72567 51.9102 8.21863 52.5867 7.45708C53.1404 6.81204 53.4411 5.98079 53.4312 5.12304C53.4585 4.54306 53.2665 3.97455 52.8949 3.53507C52.6417 3.28933 52.3403 3.10131 52.0106 2.98344C51.6809 2.86557 51.3304 2.82056 50.9824 2.85134H48.1446V10.8046H50.0112V8.89821L50.0097 8.89667ZM55.6278 5.12304C55.6278 4.58255 55.9305 4.30999 56.5359 4.30999C57.1413 4.30999 57.4374 4.58255 57.4374 5.12304C57.4376 5.47367 57.3914 5.82271 57.3002 6.16074C57.2304 6.4473 57.1061 6.71706 56.9345 6.95472C56.9063 7.03856 56.8533 7.11133 56.7827 7.16285C56.7121 7.21438 56.6275 7.24207 56.5407 7.24207C56.4539 7.24207 56.3693 7.21438 56.2987 7.16285C56.2281 7.11133 56.175 7.03856 56.1469 6.95472C55.975 6.71421 55.8478 6.44352 55.7716 6.1561C55.6746 5.8208 55.6268 5.47266 55.6298 5.12304H55.6278ZM53.7057 3.9895C53.7057 4.03278 53.7057 4.3579 53.7249 4.95558C53.7476 5.60409 53.876 6.2442 54.1047 6.8496C54.3104 7.4219 54.6434 7.93762 55.0774 8.35617C55.4706 8.7357 55.9934 8.94333 56.5344 8.93478C56.9565 8.94126 57.3711 8.8197 57.7255 8.58546C58.073 8.34463 58.3687 8.03375 58.5942 7.67193C58.8311 7.28568 59.0132 6.86709 59.1351 6.42866C59.2734 5.95039 59.3438 5.45429 59.3439 4.95558C59.3641 4.6468 59.3175 4.33727 59.2076 4.04889C59.0976 3.76051 58.927 3.50033 58.7077 3.28672C58.2096 2.87762 57.58 2.67295 56.942 2.71274C56.7569 2.71274 56.5102 2.72717 56.1923 2.76066C55.9644 2.78173 55.7378 2.81613 55.5138 2.8637C55.5123 2.5868 55.6083 2.31857 55.7842 2.10784C55.9406 1.93971 56.1448 1.826 56.3679 1.78273C56.6887 1.72317 57.0146 1.69743 57.3406 1.70595H58.9635L58.4747 0.00566356H56.8517C56.1734 -0.032533 55.498 0.123052 54.9013 0.454958C54.4376 0.749826 54.1002 1.21292 53.9569 1.7513C53.7722 2.48188 53.6883 3.23522 53.7077 3.9895H53.7057ZM62.3568 10.7953L65.1567 2.85134H63.0969L62.2523 5.65374H62.2352L61.3907 2.85134H59.184L61.2721 8.26137L60.361 10.7964H62.3588L62.3568 10.7953ZM67.7857 4.44859C68.0067 4.44373 68.2258 4.49116 68.4259 4.58718C68.5302 4.66109 68.6119 4.76366 68.6616 4.88301C68.7112 5.00237 68.7267 5.13363 68.7064 5.26163C68.7031 5.55961 68.6367 5.85334 68.5117 6.12261C68.3974 6.39759 68.2163 6.63818 67.9854 6.82152C67.7545 7.00486 67.4815 7.12484 67.1924 7.17009V4.44859H67.7857ZM67.1924 8.89667C68.1852 8.72567 69.0928 8.21863 69.7694 7.45708C70.323 6.81204 70.6238 5.98079 70.6139 5.12304C70.6412 4.54306 70.4492 3.97455 70.0776 3.53507C69.8244 3.28936 69.5229 3.10135 69.1932 2.98349C68.8635 2.86562 68.5131 2.82059 68.1651 2.85134H65.3273V10.8046H67.1939V8.89821L67.1924 8.89667ZM71.2208 8.20779C71.2001 8.65445 71.2867 9.0995 71.4731 9.50413L71.5588 9.66643L73.2196 8.65759L73.1722 8.53289C73.1086 8.29317 73.0829 8.04463 73.096 7.79662V4.49908H75.4263L74.9722 2.85392H71.2233V8.21243L71.2208 8.20779ZM75.2406 5.12304C75.235 5.7573 75.3915 6.3821 75.6947 6.93566C75.9849 7.46543 76.397 7.91512 76.8954 8.24592C77.4161 8.59574 78.0278 8.77742 78.651 8.76734H78.9542L79.4239 7.17009H78.7595C78.467 7.17107 78.1827 7.07162 77.9523 6.88773C77.7156 6.69633 77.5201 6.45708 77.3782 6.18495C77.225 5.90241 77.1449 5.5846 77.1456 5.26163C77.1246 5.13418 77.1393 5.00326 77.1879 4.88394C77.2365 4.76462 77.3172 4.66176 77.4206 4.58718C77.6208 4.49123 77.8401 4.4438 78.0613 4.44859H79.3225L78.8574 2.85134H77.6804C77.2895 2.84063 76.9 2.90387 76.5316 3.03786C76.1207 3.19012 75.7711 3.47763 75.5377 3.85513C75.3043 4.23263 75.2005 4.67868 75.2426 5.12304H75.2406ZM83.8115 5.44815L85.0264 2.85134H82.9953L81.8183 5.50585L83.2278 8.76734H85.2872L83.8115 5.44815ZM79.9436 2.85134V8.76888H81.8102V2.85134H79.9436ZM87.2517 5.26163C87.2306 5.13417 87.2452 5.00321 87.2938 4.88386C87.3425 4.76452 87.4232 4.66167 87.5266 4.58718C87.7269 4.49123 87.9462 4.4438 88.1674 4.44859H88.7727V7.17163C88.4834 7.1358 88.21 7.0164 87.9847 6.82745C87.758 6.63705 87.5751 6.39813 87.4487 6.12756C87.3224 5.85699 87.2558 5.56138 87.2537 5.26163H87.2517ZM85.3487 5.12304C85.3458 6.08051 85.7076 7.0016 86.3577 7.69151C86.662 8.03241 87.033 8.30431 87.4467 8.48962C87.8603 8.67494 88.3074 8.76954 88.7591 8.76734H90.6339V2.85134H87.7865C87.3956 2.84063 87.0061 2.90387 86.6377 3.03786C86.2272 3.19048 85.8779 3.47815 85.645 3.85561C85.412 4.23308 85.3085 4.67893 85.3508 5.12304H85.3487ZM92.4576 9.54226C92.9051 9.06261 93.2962 8.53124 93.623 7.95892C94.0103 7.29427 94.3574 6.60599 94.6622 5.89796C94.2727 5.66027 93.9134 5.37418 93.5927 5.04626C93.4836 4.94358 93.4139 4.80459 93.396 4.65417C93.3952 4.62378 93.4029 4.59379 93.418 4.56764C93.4332 4.54149 93.4553 4.52023 93.4817 4.5063C93.6325 4.45372 93.7923 4.43406 93.9509 4.44859H94.7228V8.76888H96.5844V2.85134H93.2648C92.879 2.83385 92.4946 2.91088 92.1438 3.07599C91.8904 3.20223 91.6784 3.4009 91.5335 3.64785C91.3886 3.89481 91.3171 4.17943 91.3275 4.46713C91.3241 4.83783 91.4296 5.20108 91.6302 5.50999C91.8289 5.81616 92.0864 6.07802 92.387 6.27975C92.1201 6.78211 91.8825 7.19327 91.6691 7.51633C91.4473 7.85211 91.2031 8.1718 90.9381 8.47313L90.8054 8.62771L92.3567 9.64634L92.4576 9.54226ZM24.8217 20.5833C24.7936 21.1856 24.9026 21.7863 25.14 22.3383L27.0238 21.1331C26.9701 20.9803 26.935 20.8212 26.9194 20.6596C26.9053 20.4973 26.9007 20.2773 26.9007 19.9949V17.46H29.0882V21.1347H31.1667V13.1319H29.0882V15.6566H26.9007V13.1319H24.8217V20.5833ZM33.9188 17.5558C33.9047 17.4326 33.9189 17.3077 33.9603 17.191C34.0016 17.0743 34.0691 16.9691 34.1572 16.8837C34.2453 16.7983 34.3517 16.735 34.468 16.6989C34.5842 16.6629 34.7071 16.6549 34.8269 16.6758C34.9599 16.6692 35.0931 16.6854 35.2209 16.7237C35.2758 16.7381 35.324 16.7718 35.357 16.8189C35.3899 16.8661 35.4055 16.9236 35.401 16.9813C35.3817 17.1197 35.3326 17.252 35.2571 17.3687C35.1817 17.4853 35.0817 17.5834 34.9646 17.6558C34.6769 17.8848 34.3704 18.088 34.0484 18.2632C33.9682 18.0361 33.9251 17.7972 33.9208 17.5558H33.9188ZM32.0158 17.4888C32.0108 18.4467 32.373 19.3686 33.0248 20.0573C33.329 20.3983 33.7 20.6703 34.1137 20.8557C34.5273 21.041 34.9745 21.1355 35.4262 21.1331H36.5507L37.0204 19.5359H36.2803C35.9093 19.5401 35.5387 19.5055 35.1745 19.4328C35.5021 19.2363 35.7821 19.0545 36.0145 18.8872C36.2458 18.7196 36.4591 18.5274 36.6506 18.3137C37.0637 17.8888 37.2971 17.3153 37.3004 16.7165C37.3004 15.6262 36.5649 15.0811 35.0937 15.0811H34.7098C34.1809 15.0603 33.6533 15.1479 33.158 15.3387C32.3786 15.6762 32.0274 16.3651 32.0178 17.4888H32.0158ZM39.6761 18.8424C39.6761 17.7566 40.1302 17.1062 41.0382 16.8911V19.5374H39.7472C39.6972 19.3094 39.674 19.076 39.6781 18.8424H39.6761ZM43.5441 19.5359H42.913V15.2171H41.8924C41.0961 15.1788 40.3027 15.3398 39.5813 15.686C39.0425 15.9896 38.5984 16.4421 38.2998 16.9916C37.9727 17.5989 37.8074 18.2833 37.8206 18.9763C37.8171 19.1636 37.8298 19.3508 37.8584 19.5359H37.3272L37.7812 21.1331H43.087L43.5441 19.5359ZM46.3587 16.8144C46.7144 16.8144 46.8899 16.8659 46.8899 17.0967C46.8601 17.2426 46.7772 17.3716 46.6578 17.4574C46.4085 17.6891 46.1382 17.8961 45.8506 18.0757L46.4439 18.4771C46.6276 18.5919 46.8008 18.7233 46.9616 18.8697C47.0142 18.9163 47.0569 18.9735 47.0871 19.0376C47.1173 19.1018 47.1343 19.1716 47.1371 19.2427C47.1371 19.4385 46.9757 19.5343 46.6578 19.5343H45.7583V16.8128H46.3637L46.3587 16.8144ZM47.065 21.1331C47.6471 21.1857 48.2287 21.0266 48.7071 20.6838C48.866 20.5521 48.994 20.3859 49.0819 20.1971C49.1698 20.0084 49.2153 19.802 49.2151 19.5931C49.2108 19.3806 49.1673 19.1708 49.087 18.9748C48.9135 18.556 48.6351 18.1914 48.2798 17.9175C48.4766 17.7755 48.6393 17.5899 48.756 17.3746C48.8726 17.1593 48.9401 16.9199 48.9533 16.6742C48.9552 16.4795 48.9159 16.2866 48.8382 16.1088C48.7604 15.9309 48.646 15.7723 48.5028 15.6437C48.0962 15.3225 47.5863 15.169 47.074 15.2135H43.8917V21.1347H47.07L47.065 21.1331ZM49.5476 18.6651C49.5476 20.3108 50.3323 21.1335 51.9016 21.1331H54.8816V15.2171H53.015V19.5374H52.8132C52.6278 19.5394 52.4425 19.5297 52.2583 19.5086C51.7462 19.4514 51.5227 19.1479 51.5227 18.5378C51.5257 18.2852 51.5545 18.0337 51.6085 17.7872C51.6509 17.5718 51.7129 17.342 51.784 17.0983C51.8552 16.8546 51.9263 16.6485 51.9858 16.48L52.2325 15.8205C52.337 15.5428 52.4177 15.3418 52.4606 15.2176H50.5511C49.9842 16.2823 49.6431 17.4569 49.5501 18.6651H49.5476ZM62.3805 17.8407L63.2538 15.213H61.1465L60.359 17.9056L61.3221 21.129H63.5196L62.3805 17.8407ZM58.4656 15.213V21.1347H60.3322V15.2171H58.4656V15.213ZM57.6493 15.213H55.5375L56.4103 17.8407L55.2883 21.1347H57.4763L58.4348 17.9113L57.6493 15.213ZM63.6185 18.661C63.6185 20.3067 64.4032 21.1293 65.9725 21.129H68.9526V15.2171H67.0859V19.5374H66.8841C66.6988 19.5394 66.5134 19.5297 66.3292 19.5086C65.8166 19.4514 65.5937 19.1479 65.5937 18.5378C65.5967 18.2852 65.6254 18.0337 65.6794 17.7872C65.7218 17.5718 65.7838 17.342 65.8549 17.0983C65.9261 16.8546 65.9972 16.6485 66.0568 16.48L66.3035 15.8205C66.4079 15.5428 66.4886 15.3418 66.5315 15.2176H64.619C64.0531 16.2825 63.7131 17.4572 63.621 18.6651L63.6185 18.661ZM72.7878 19.3741L73.8079 18.054V21.1347H75.675V15.2171H73.9764L72.7898 16.7428L71.6032 15.2171H69.9046V21.1347H71.7712V18.0597L72.7878 19.3741ZM78.2404 17.4847C78.2404 16.9442 78.5431 16.6717 79.1485 16.6717C79.7539 16.6717 80.0505 16.9442 80.0505 17.4847C80.0505 17.8354 80.0042 18.1844 79.9128 18.5224C79.8429 18.8089 79.7186 19.0787 79.547 19.3164C79.5189 19.4002 79.4658 19.473 79.3952 19.5245C79.3246 19.576 79.24 19.6037 79.1532 19.6037C79.0665 19.6037 78.9819 19.576 78.9113 19.5245C78.8407 19.473 78.7876 19.4002 78.7595 19.3164C78.5875 19.076 78.4605 18.8052 78.3846 18.5178C78.2878 18.1838 78.24 17.8371 78.2429 17.4888L78.2404 17.4847ZM76.3374 17.3172C76.3364 17.9615 76.4524 18.6004 76.6795 19.2015C76.887 19.7805 77.227 20.3004 77.6713 20.7178C78.0308 21.0471 78.4858 21.2477 78.967 21.2891C79.4483 21.3304 79.9296 21.2104 80.3381 20.9471C80.6856 20.7063 80.9813 20.3954 81.2068 20.0336C81.4437 19.6473 81.6258 19.2288 81.7476 18.7903C81.886 18.3121 81.9563 17.816 81.9565 17.3172C81.9507 17.0227 81.9076 16.7302 81.8284 16.447C81.7069 16.072 81.4728 15.7457 81.1594 15.5144C80.6873 15.1898 80.1229 15.0349 79.5551 15.0744H78.7388C78.1717 15.0368 77.6086 15.1931 77.1381 15.5185C76.8243 15.7497 76.59 16.076 76.4686 16.4511C76.3891 16.7345 76.3459 17.0272 76.3399 17.3219L76.3374 17.3172ZM82.2799 17.4847C82.2742 18.119 82.4307 18.7438 82.7339 19.2973C83.024 19.8272 83.4361 20.2769 83.9346 20.6076C84.4553 20.9574 85.0671 21.1391 85.6903 21.129H85.9894L86.4591 19.5318H85.7947C85.5023 19.5328 85.2179 19.4334 84.9875 19.2494C84.7508 19.058 84.5554 18.8187 84.4134 18.5466C84.2602 18.2641 84.1801 17.9463 84.1808 17.6233C84.1597 17.4958 84.1743 17.3649 84.223 17.2455C84.2716 17.1262 84.3523 17.0233 84.4558 16.9488C84.6561 16.8529 84.8753 16.8055 85.0965 16.8102H86.3577L85.8931 15.213H84.7161C84.3252 15.2023 83.9357 15.2655 83.5673 15.3995C83.1567 15.5529 82.8078 15.8415 82.5754 16.2198C82.343 16.598 82.2405 17.0445 82.2839 17.4888L82.2799 17.4847ZM89.8786 21.129V16.8484H91.6065L91.1525 15.213H86.7391L86.2931 16.8484H88.0085V21.1347H89.8781L89.8786 21.129ZM93.7032 18.3647C93.961 18.5021 94.2015 18.6707 94.4196 18.8671C94.4803 18.9173 94.5299 18.9799 94.5656 19.0509C94.6012 19.1219 94.6219 19.1997 94.6264 19.2793C94.6264 19.456 94.4347 19.542 94.0513 19.542H93.7032V18.3658V18.3647ZM94.4499 21.129C94.8585 21.1464 95.2642 21.0523 95.6253 20.8564C95.9021 20.7016 96.1327 20.4732 96.2926 20.1953C96.4525 19.9174 96.5357 19.6005 96.5334 19.2782C96.5379 18.9246 96.4415 18.5773 96.256 18.2787C96.0237 17.9223 95.7213 17.6192 95.368 17.3889C94.8435 17.043 94.2856 16.753 93.7032 16.5233V15.213H91.8401V21.1347H94.4499V21.129Z" fill="#02101C"/>
    <path fill-rule="evenodd" clip-rule="evenodd" d="M25.1046 28.5886H26.603C26.5938 28.7582 26.5562 28.9249 26.492 29.0816C26.4389 29.209 26.3606 29.3237 26.262 29.4186C26.1687 29.5069 26.0579 29.5737 25.9371 29.6144C25.808 29.6569 25.6731 29.678 25.5375 29.6767C25.3695 29.6791 25.2018 29.6609 25.038 29.6227C24.9199 29.5958 24.8046 29.5569 24.694 29.5067L24.4922 30.1812C24.6252 30.2394 24.7639 30.2831 24.9059 30.3115C25.0948 30.3509 25.2872 30.3699 25.48 30.3682C25.7191 30.3688 25.9569 30.3341 26.1863 30.2651C26.4085 30.1991 26.6133 30.0829 26.7856 29.9251C26.9709 29.7495 27.1134 29.5321 27.2018 29.2903C27.314 28.9745 27.3668 28.6399 27.3572 28.3041C27.3648 27.9785 27.3198 27.6539 27.224 27.3432C27.149 27.1045 27.023 26.8858 26.8552 26.7028C26.6997 26.5395 26.5072 26.418 26.2948 26.3488C26.0664 26.2751 25.828 26.2387 25.5884 26.2411C25.3922 26.2417 25.1967 26.2654 25.0058 26.3117C24.8368 26.3494 24.6729 26.4075 24.5174 26.4848L24.6784 27.1423C24.793 27.0805 24.9139 27.0319 25.0391 26.9975C25.2092 26.9514 25.3847 26.9295 25.5607 26.9326C25.7066 26.9301 25.8516 26.956 25.988 27.0088C26.1074 27.0554 26.2153 27.128 26.3043 27.2216C26.3914 27.3159 26.4599 27.4265 26.5061 27.5473C26.5575 27.6805 26.5883 27.8212 26.5974 27.9641H25.1046V28.5875V28.5886ZM30.0104 30.2889H30.9482L29.6552 28.4242L29.3444 28.2032L29.6441 27.9878L30.7762 26.3215H29.9105L28.8394 27.9991L28.6619 28.0785V26.3215H27.9016V30.2889H28.6619V28.5942H28.8636L30.0104 30.2889ZM33.673 29.4954C33.5791 29.5519 33.4784 29.5957 33.3734 29.6257C33.2358 29.6628 33.0938 29.6802 32.9516 29.6773C32.79 29.6806 32.6298 29.6466 32.4829 29.5778C32.3502 29.5135 32.2343 29.4182 32.1444 29.2996C32.0496 29.1709 31.981 29.0241 31.9426 28.8678C31.8965 28.6851 31.8741 28.497 31.876 28.3083C31.8468 27.9389 31.9462 27.5709 32.1565 27.269C32.2471 27.1596 32.3608 27.0726 32.4891 27.0146C32.6174 26.9565 32.7569 26.929 32.8971 26.9341C33.0392 26.9323 33.1812 26.9418 33.3219 26.9625C33.4266 26.9774 33.5286 27.0079 33.6246 27.0532L33.7759 26.3957C33.653 26.3472 33.5258 26.3112 33.396 26.288C33.21 26.255 33.0213 26.2398 32.8325 26.2427C32.6213 26.243 32.4115 26.2778 32.211 26.3457C32.0009 26.4177 31.8087 26.5357 31.648 26.6914C31.4678 26.8702 31.3277 27.0868 31.2373 27.3262C31.1232 27.639 31.0693 27.9715 31.0789 28.3052C31.0713 28.6294 31.1193 28.9525 31.2207 29.2599C31.3007 29.4988 31.4303 29.7173 31.6005 29.9004C31.755 30.0617 31.9441 30.1839 32.153 30.2574C32.3663 30.3319 32.5904 30.3694 32.8159 30.3682C33.0051 30.3683 33.1938 30.3495 33.3794 30.312C33.542 30.2837 33.6968 30.2203 33.8335 30.126L33.673 29.4954ZM36.4089 30.2889H37.3468L36.0537 28.4242L35.743 28.2032L36.0426 27.9878L37.1747 26.3215H36.309L35.238 27.9991L35.0604 28.0785V26.3215H34.3001V30.2889H35.0619V28.5942H35.2637L36.4089 30.2889ZM39.9939 30.2889H40.7542V26.3215H38.4622C38.4545 26.7821 38.4415 27.1854 38.4234 27.5313C38.4052 27.8772 38.3803 28.1748 38.3487 28.4242C38.3247 28.6311 38.2885 28.8364 38.2402 29.0389C38.2122 29.1681 38.1634 29.2917 38.0959 29.4047C38.0625 29.4695 38.0116 29.5231 37.9491 29.5593C37.8952 29.5884 37.8351 29.6039 37.7741 29.6046C37.7518 29.6045 37.7295 29.6026 37.7075 29.5989C37.685 29.5947 37.6627 29.5891 37.6409 29.5819L37.5577 30.2517C37.612 30.2775 37.6688 30.2974 37.7272 30.311C37.7974 30.3257 37.8689 30.3325 37.9406 30.3311C38.0049 30.3306 38.0691 30.3238 38.1323 30.311C38.2042 30.2966 38.274 30.2728 38.3401 30.2404C38.4129 30.2043 38.4808 30.1586 38.5419 30.1044C38.6107 30.0423 38.6696 29.9696 38.7165 29.889C38.8046 29.7424 38.8725 29.5841 38.9183 29.4186C38.9749 29.2132 39.0168 29.0038 39.0434 28.7921C39.0747 28.5561 39.0995 28.2907 39.118 27.996C39.1365 27.7013 39.1534 27.375 39.1685 27.0171H39.9954V30.293L39.9939 30.2889ZM42.1803 26.3215H41.4186V30.2889H42.1788V28.6282H42.6949C42.7135 28.8715 42.762 29.1115 42.8392 29.3424C42.9054 29.544 43.009 29.7306 43.1444 29.8921C43.275 30.0437 43.437 30.1638 43.6187 30.2435C43.8236 30.3301 44.0437 30.3725 44.2654 30.3682C44.491 30.3835 44.7169 30.3427 44.9237 30.2494C45.1305 30.1561 45.3121 30.013 45.453 29.8324C45.7459 29.3815 45.8862 28.8451 45.8526 28.3052C45.8554 28.0209 45.8245 27.7374 45.7608 27.4607C45.7083 27.2269 45.6122 27.0056 45.4777 26.8089C45.3517 26.6287 45.1828 26.4843 44.9869 26.3895C44.7603 26.2855 44.5137 26.2351 44.2654 26.2421C44.061 26.23 43.8565 26.2632 43.6658 26.3395C43.4752 26.4158 43.303 26.5334 43.1611 26.6842C42.8752 27.0381 42.7113 27.4783 42.6949 27.9368H42.1803V26.3215ZM43.6701 27.2649C43.7302 27.159 43.8177 27.072 43.923 27.0136C44.0283 26.9551 44.1473 26.9275 44.2669 26.9336C44.4026 26.9277 44.5369 26.9636 44.6524 27.0366C44.7571 27.1102 44.8405 27.2111 44.894 27.3288C44.9571 27.4669 44.9992 27.6141 45.0187 27.7652C45.0437 27.9435 45.0558 28.1235 45.055 28.3036C45.0799 28.6641 45.0139 29.0251 44.8633 29.3521C44.8026 29.4568 44.7148 29.5424 44.6096 29.5994C44.5044 29.6564 44.3858 29.6826 44.2669 29.6752C44.1348 29.6793 44.0044 29.6435 43.8921 29.5722C43.788 29.501 43.7038 29.4033 43.6479 29.2888C43.5819 29.152 43.537 29.0057 43.5147 28.8549C43.486 28.6723 43.4721 28.4876 43.4734 28.3026C43.4502 27.9455 43.518 27.5883 43.6701 27.2659V27.2649ZM46.8812 28.5319H46.9983C47.0205 28.5319 47.0543 28.5319 47.0992 28.5376C47.3401 28.5228 47.5806 28.5736 47.7959 28.6849C47.8597 28.729 47.9113 28.7893 47.9455 28.8598C47.9797 28.9304 47.9954 29.0087 47.9911 29.0873C47.9936 29.1819 47.9724 29.2755 47.9296 29.3593C47.8907 29.4328 47.8354 29.4958 47.7681 29.5433C47.7001 29.5917 47.6238 29.6267 47.5432 29.6463C47.4621 29.667 47.379 29.6776 47.2955 29.6778C47.1041 29.6812 46.9132 29.6592 46.7274 29.6123C46.6016 29.5808 46.4787 29.5382 46.3601 29.4851L46.1654 30.1595C46.3119 30.2291 46.4668 30.2787 46.626 30.3069C46.8454 30.3502 47.0685 30.371 47.2919 30.3692C47.4791 30.3694 47.6655 30.3455 47.8469 30.2981C48.0183 30.2554 48.1808 30.1816 48.3267 30.0802C48.4652 29.9821 48.58 29.8531 48.6626 29.703C48.7515 29.5334 48.7955 29.343 48.7903 29.1507C48.8083 28.9197 48.7389 28.6905 48.5965 28.5102C48.454 28.3299 48.2493 28.2123 48.0244 28.1815V28.1522C48.2249 28.0954 48.3989 27.9675 48.5153 27.7915C48.6156 27.6286 48.6682 27.4398 48.6667 27.2474C48.6731 27.0785 48.6348 26.911 48.5557 26.7625C48.4837 26.6382 48.3827 26.5341 48.2616 26.4596C48.1334 26.3814 47.9923 26.3276 47.8453 26.3009C47.688 26.2704 47.5282 26.2552 47.3681 26.2555C47.2512 26.2553 47.1344 26.2628 47.0185 26.2782C46.911 26.2919 46.8044 26.3117 46.6991 26.3375C46.6013 26.3622 46.5145 26.389 46.4383 26.4142C46.3782 26.4338 46.3198 26.4585 46.2637 26.4879L46.458 27.1454C46.5627 27.0911 46.6724 27.0475 46.7854 27.015C46.9366 26.9686 47.0937 26.9457 47.2516 26.947C47.4062 26.94 47.5601 26.9741 47.698 27.0459C47.7572 27.0858 47.8043 27.1416 47.8343 27.2072C47.8642 27.2728 47.8757 27.3455 47.8675 27.4174C47.8699 27.4772 47.8586 27.5367 47.8345 27.5913C47.8104 27.6458 47.7742 27.6939 47.7288 27.7317C47.6317 27.8114 47.5177 27.8669 47.3958 27.8935C47.3574 27.9023 47.3185 27.9088 47.2793 27.9131C47.2288 27.9188 47.1819 27.9229 47.132 27.9244C47.082 27.926 47.0311 27.9275 46.9852 27.9275H46.7309V28.5339H46.8823L46.8812 28.5319ZM51.5812 30.2889H52.3414V26.3215H51.7754L50.327 28.4639L50.055 29.0136H50.0218L50.0772 28.4809V26.3215H49.317V30.2889H49.8886L51.337 28.1068L51.5978 27.5741H51.6255L51.5812 28.0893V30.2883V30.2889ZM55.5041 26.7579C55.424 26.6301 55.3121 26.5265 55.1797 26.4575C55.0351 26.3824 54.8796 26.3316 54.7191 26.3071C54.5438 26.2786 54.3665 26.2644 54.1889 26.2648C54.082 26.2648 53.9735 26.2648 53.8645 26.2705C53.7555 26.2761 53.6491 26.2798 53.5452 26.2875C53.4412 26.2952 53.3434 26.3045 53.2541 26.3158C53.1648 26.3272 53.083 26.3385 53.0124 26.3498V30.2605C53.1176 30.2848 53.2243 30.302 53.3318 30.312C53.4481 30.3234 53.5628 30.3318 53.6758 30.3373C53.7888 30.3428 53.8943 30.3457 53.9921 30.3461H54.2328C54.4216 30.3465 54.6098 30.3237 54.7933 30.278C54.9657 30.2366 55.1299 30.1657 55.2791 30.0683C55.4196 29.9758 55.5365 29.8504 55.6202 29.7025C55.7085 29.5409 55.7526 29.3579 55.7478 29.1728C55.7507 29.0359 55.7292 28.8995 55.6842 28.7704C55.646 28.6632 55.5869 28.5649 55.5107 28.4814C55.4371 28.4021 55.3488 28.3385 55.2509 28.2944C55.1506 28.2486 55.045 28.2162 54.9366 28.198V28.164C55.0507 28.1383 55.1592 28.0911 55.2564 28.0249C55.3403 27.9671 55.4131 27.8941 55.4713 27.8095C55.5266 27.728 55.5668 27.6369 55.5899 27.5406C55.6137 27.4442 55.6257 27.3452 55.6257 27.2458C55.6328 27.0745 55.5905 26.9049 55.5041 26.7579ZM54.1132 29.6906L53.9715 29.685C53.9261 29.685 53.8832 29.6804 53.8433 29.6767C53.8136 29.6753 53.7842 29.6695 53.756 29.6597V28.5777H54.1541C54.2487 28.5778 54.3432 28.5833 54.4371 28.5942C54.5262 28.6039 54.613 28.6296 54.6934 28.67C54.768 28.7082 54.8317 28.7653 54.8786 28.8359C54.9302 28.9237 54.9548 29.0253 54.9492 29.1275C54.9515 29.2156 54.9309 29.3027 54.8896 29.38C54.8503 29.45 54.7964 29.5103 54.7317 29.5567C54.663 29.6048 54.5862 29.6397 54.5052 29.6597C54.419 29.6825 54.3304 29.694 54.2414 29.6938C54.2051 29.6938 54.1622 29.6927 54.1132 29.6906ZM53.756 27.9904V26.9413C53.8186 26.9324 53.8816 26.9269 53.9447 26.9248C54.0265 26.9207 54.1152 26.9192 54.2111 26.9192C54.293 26.9188 54.3747 26.9262 54.4553 26.9413C54.5288 26.9546 54.5994 26.9813 54.6636 27.0202C54.7243 27.057 54.7748 27.1089 54.8104 27.1711C54.8501 27.245 54.8693 27.3286 54.8659 27.4128C54.8684 27.4795 54.8561 27.5458 54.8298 27.6069C54.8036 27.6681 54.7642 27.7224 54.7146 27.7657C54.6084 27.8582 54.4845 27.9269 54.3508 27.9677C54.2949 27.9766 54.2384 27.9823 54.1818 27.9847C54.1132 27.9883 54.0532 27.9904 54.0012 27.9904H53.757H53.756ZM58.4731 30.2914H59.2334V26.3241H58.4731V27.9357H57.0524V26.3205H56.2921V30.2878H57.0524V28.6272H58.4731V30.2878V30.2914ZM62.9016 30.2914H63.6618V26.3241H62.9016V30.2914ZM59.9048 30.2517C59.996 30.2757 60.0888 30.2929 60.1823 30.3033C60.2832 30.3146 60.3804 30.3241 60.4739 30.3316C60.5674 30.3392 60.6552 30.3438 60.7373 30.3455C60.8183 30.3476 60.8856 30.3486 60.9391 30.3486C61.3569 30.3797 61.7719 30.2581 62.11 30.0055C62.2473 29.8742 62.354 29.7132 62.4221 29.5342C62.4903 29.3552 62.5183 29.1629 62.504 28.9714C62.511 28.7587 62.4731 28.547 62.393 28.3505C62.3269 28.1966 62.2238 28.062 62.0934 27.9594C61.9623 27.8607 61.8119 27.7921 61.6524 27.7585C61.4782 27.7199 61.3004 27.7009 61.1222 27.7018C61.035 27.702 60.9479 27.7076 60.8614 27.7188C60.7726 27.7302 60.71 27.7394 60.6672 27.7472V26.3246H59.9069V30.2523L59.9048 30.2517ZM60.813 29.6479C60.7633 29.6436 60.714 29.6352 60.6656 29.6227V28.4376C60.7149 28.422 60.7657 28.4115 60.817 28.4062C60.9701 28.3843 61.1257 28.3881 61.2776 28.4175C61.3573 28.4323 61.4329 28.4642 61.4996 28.5113C61.5652 28.5589 61.6174 28.6235 61.6509 28.6983C61.6911 28.7949 61.7101 28.8994 61.7064 29.0044C61.7154 29.0979 61.7022 29.1923 61.668 29.2796C61.6337 29.3668 61.5794 29.4444 61.5097 29.5057C61.3592 29.6119 61.1788 29.6648 60.9961 29.6562C60.9295 29.6541 60.8694 29.651 60.8124 29.6453L60.813 29.6479ZM66.598 30.2914H67.3583V26.3241H66.7923L65.3438 28.4664L65.0719 29.0162H65.0386L65.0941 28.4835V26.3241H64.3338V30.2914H64.9054L66.3538 28.1094L66.6147 27.5766H66.6434L66.599 28.0919V30.2909L66.598 30.2914ZM64.8277 25.4513C64.8365 25.5624 64.8729 25.6694 64.9336 25.7621C64.9942 25.8548 65.0771 25.9302 65.1743 25.9809C65.2782 26.0351 65.3897 26.0725 65.5048 26.0917C65.6423 26.1154 65.7816 26.1267 65.921 26.1257C66.1691 26.1391 66.4159 26.0822 66.6343 25.9613C66.7216 25.9035 66.7953 25.8269 66.8504 25.7368C66.9055 25.6467 66.9406 25.5453 66.9532 25.4399L66.3372 25.3436C66.3342 25.394 66.3209 25.4434 66.2981 25.4883C66.2753 25.5332 66.2435 25.5727 66.2048 25.6042C66.1661 25.6358 66.1213 25.6586 66.0733 25.6713C66.0254 25.684 65.9754 25.6863 65.9265 25.678C65.8273 25.6823 65.7294 25.6545 65.6465 25.5986C65.608 25.567 65.5764 25.5275 65.5539 25.4826C65.5313 25.4376 65.5184 25.3883 65.5159 25.3379L64.8277 25.4513ZM71.5537 30.2914H72.314V26.3241H69.4333V30.2914H70.1936V27.0155H71.5557V30.2914H71.5537ZM72.9799 30.2914H73.7402V28.9255C73.7583 28.9291 73.7906 28.9328 73.8315 28.9369C73.8724 28.941 73.9178 28.9436 73.9622 28.9451C74.0065 28.9467 74.0489 28.9482 74.0898 28.9482H74.1786C74.3668 28.9486 74.5542 28.9239 74.736 28.8745C74.9098 28.8279 75.073 28.7471 75.2163 28.6365C75.3592 28.5238 75.4749 28.3793 75.5548 28.214C75.6453 28.0165 75.689 27.8002 75.6825 27.5823C75.6918 27.3497 75.641 27.1187 75.5352 26.9125C75.4439 26.7477 75.3132 26.6093 75.1553 26.5101C74.9942 26.4118 74.8161 26.3464 74.6306 26.3174C74.439 26.2856 74.2451 26.2696 74.051 26.2695C73.8656 26.2695 73.6796 26.2779 73.493 26.2947C73.3063 26.3115 73.1353 26.3352 72.9799 26.3658V30.2935V30.2914ZM74.395 26.9645C74.4832 26.9816 74.5671 27.0167 74.6417 27.0676C74.7146 27.1174 74.7746 27.1844 74.8168 27.2628C74.8644 27.3584 74.8873 27.4648 74.8834 27.572C74.8883 27.695 74.8645 27.8174 74.8137 27.929C74.7713 28.0153 74.7072 28.0886 74.6281 28.1413C74.5474 28.1927 74.4579 28.2276 74.3642 28.2444C74.2664 28.2631 74.1671 28.2726 74.0676 28.2727H73.998C73.9667 28.2727 73.9344 28.2717 73.9011 28.2696C73.8678 28.2696 73.836 28.265 73.8068 28.2614C73.7775 28.2578 73.7563 28.2537 73.7402 28.2501V26.962C73.7805 26.9542 73.8345 26.9475 73.9011 26.9419C73.9677 26.9362 74.0378 26.9336 74.112 26.9336C74.2068 26.9335 74.3015 26.943 74.3945 26.962L74.395 26.9645ZM76.0709 29.1522C76.1292 29.3876 76.2321 29.609 76.3737 29.804C76.5084 29.9849 76.6848 30.129 76.8872 30.2234C77.118 30.3265 77.368 30.3768 77.6198 30.3708C77.8495 30.3839 78.0791 30.3423 78.2905 30.2493C78.5018 30.1563 78.6891 30.0145 78.8376 29.8349C79.1503 29.3923 79.3024 28.8524 79.268 28.3078C79.2707 28.023 79.2368 27.739 79.1671 27.4633C79.1087 27.2275 79.0049 27.0059 78.8618 26.8115C78.7258 26.6309 78.5486 26.4869 78.3457 26.3921C78.1169 26.2892 77.8687 26.2389 77.6187 26.2447C77.3885 26.2309 77.1583 26.2721 76.9464 26.365C76.7344 26.4579 76.5466 26.6001 76.3979 26.7801C76.0869 27.2236 75.9359 27.7634 75.9706 28.3078C75.9678 28.5916 76.0014 28.8747 76.0705 29.1497L76.0709 29.1522ZM76.9921 27.2675C77.105 27.1077 77.2717 26.9962 77.4602 26.9544C77.6487 26.9125 77.8457 26.9433 78.0133 27.0408C78.1231 27.1139 78.2129 27.2144 78.2741 27.3329C78.3449 27.4697 78.3944 27.617 78.4209 27.7693C78.4534 27.9468 78.4693 28.1272 78.4683 28.3078C78.4962 28.6719 78.419 29.0364 78.2463 29.3563C78.1774 29.4602 78.0836 29.5444 77.9739 29.6009C77.8641 29.6575 77.7421 29.6845 77.6193 29.6793C77.4846 29.6828 77.3518 29.647 77.2363 29.5763C77.1267 29.5057 77.036 29.4083 76.9725 29.2929C76.8993 29.1576 76.8482 29.0111 76.8211 28.8591C76.7864 28.6771 76.7695 28.4921 76.7707 28.3067C76.7441 27.9453 76.8209 27.5837 76.9917 27.2659L76.9921 27.2675ZM83.1132 29.6H82.6193V26.3241H80.2941C80.3005 26.7922 80.282 27.2604 80.2386 27.7265C80.2071 28.058 80.1566 28.3873 80.0872 28.7127C80.0441 28.9204 79.9848 29.1243 79.9097 29.3223C79.8728 29.4175 79.8302 29.5102 79.782 29.6H79.3714V30.9999H79.9117L79.9949 30.2914H82.4922L82.5754 30.9999H83.1137V29.6H83.1132ZM80.5907 29.6C80.706 29.2988 80.7905 28.9863 80.843 28.6674C80.938 28.1219 80.991 27.5695 81.0014 27.0155H81.8616V29.6H80.5877H80.5907ZM85.7639 30.2889H86.563L85.1645 26.2932H84.6035L83.205 30.2889H83.9653L84.2594 29.4104H85.4526L85.7639 30.2889ZM84.7372 27.9084L84.8537 27.2793H84.8815L84.998 27.9028L85.2866 28.7869H84.4542L84.7372 27.9084ZM89.3876 26.7579C89.3072 26.6302 89.1951 26.5266 89.0628 26.4575C88.9182 26.3824 88.7626 26.3316 88.6021 26.3071C88.427 26.2786 88.2498 26.2644 88.0724 26.2648C87.965 26.2648 87.8565 26.2648 87.7475 26.2705C87.6386 26.2761 87.5321 26.2798 87.4287 26.2875C87.3253 26.2952 87.2269 26.3045 87.1371 26.3158C87.0473 26.3272 86.9661 26.3385 86.896 26.3498V30.2605C87.001 30.2848 87.1075 30.302 87.2148 30.312C87.3311 30.3234 87.4458 30.3318 87.5588 30.3373C87.6719 30.3428 87.7773 30.3457 87.8752 30.3461H88.1168C88.3057 30.3465 88.4939 30.3236 88.6773 30.278C88.8495 30.2365 89.0136 30.1656 89.1627 30.0683C89.3032 29.9756 89.4202 29.8503 89.5042 29.7025C89.5923 29.5408 89.6364 29.3579 89.6318 29.1728C89.6348 29.0359 89.6133 28.8995 89.5683 28.7704C89.5296 28.6632 89.4704 28.565 89.3942 28.4814C89.3206 28.4021 89.2323 28.3385 89.1344 28.2944C89.0341 28.2486 88.9285 28.2162 88.8201 28.198V28.164C88.9343 28.1384 89.0428 28.0912 89.14 28.0249C89.2238 27.9671 89.2967 27.8941 89.3549 27.8095C89.4103 27.728 89.4507 27.6369 89.4739 27.5406C89.4975 27.4442 89.5095 27.3452 89.5097 27.2458C89.5168 27.0747 89.4749 26.9051 89.3892 26.7579H89.3876ZM87.9962 29.6906L87.8545 29.685C87.8091 29.685 87.7662 29.6804 87.7264 29.6767C87.6968 29.6753 87.6676 29.6695 87.6396 29.6597V28.5777H88.0371C88.1317 28.5778 88.2262 28.5833 88.3201 28.5942C88.4093 28.6039 88.496 28.6295 88.5764 28.67C88.6511 28.7081 88.7149 28.7652 88.7616 28.8359C88.8134 28.9236 88.8382 29.0252 88.8327 29.1275C88.8349 29.2156 88.8141 29.3027 88.7727 29.38C88.7335 29.4501 88.6795 29.5104 88.6148 29.5567C88.5461 29.6049 88.4693 29.6398 88.3883 29.6597C88.3021 29.6825 88.2134 29.694 88.1244 29.6938C88.0896 29.6938 88.0467 29.6927 87.9978 29.6906H87.9962ZM87.6396 27.9904V26.9413C87.7021 26.9323 87.7651 26.9269 87.8282 26.9248C87.9095 26.9207 87.9983 26.9192 88.0946 26.9192C88.1765 26.9188 88.2583 26.9262 88.3388 26.9413C88.4122 26.9546 88.4826 26.9814 88.5467 27.0202C88.6074 27.0571 88.658 27.109 88.694 27.1711C88.7333 27.2452 88.7525 27.3286 88.7495 27.4128C88.7519 27.4795 88.7395 27.5458 88.7133 27.6069C88.6871 27.668 88.6477 27.7223 88.5981 27.7657C88.4921 27.858 88.3684 27.9268 88.2349 27.9677C88.1787 27.9766 88.1221 27.9823 88.0654 27.9847C87.9968 27.9883 87.9367 27.9904 87.8853 27.9904H87.6411H87.6396ZM90.1752 30.2914H92.5075V29.6H90.9354V28.6308H92.341V27.9357H90.9354V27.0119H92.4772V26.3205H90.1752V30.2878V30.2914ZM96.4274 29.6H95.9279V26.3241H95.1712V29.6H93.8358V26.3241H93.074V30.2914H95.8084L95.8942 30.9999H96.4289V29.6H96.4274Z" fill="#02101C"/>
</svg>
