<svg width="53" height="41" viewBox="0 0 53 41" fill="none" xmlns="http://www.w3.org/2000/svg">
    <path fill-rule="evenodd"
          clip-rule="evenodd"
          d="M37.1026 0C35.8098 0.0925731 34.5256 0.281034 33.2607 0.563829C31.813 0.830905 30.5444 1.09374 30.5444 1.09374C30.3572 1.13295 30.184 1.2221 30.0433 1.35173C29.9027 1.48137 29.7998 1.64666 29.7454 1.83006C29.6911 2.01347 29.6874 2.20817 29.7348 2.3935C29.7822 2.57883 29.8788 2.74788 30.0145 2.88273C30.0145 2.88273 30.4903 3.37237 30.9746 3.97436C31.2068 4.25656 31.4173 4.55593 31.6042 4.86991C31.7589 5.13699 31.8034 5.36379 31.8034 5.29914C31.932 9.08219 31.5758 12.8661 30.7436 16.5588C30.2689 18.6075 29.3155 20.5147 27.9616 22.1239C27.2973 22.8647 26.4783 23.4504 25.5626 23.8396C24.6468 24.2287 23.6568 24.4119 22.6624 24.376C22.6508 24.376 22.6402 24.376 22.6285 24.376C17.588 24.1196 13.2172 20.1791 10.1098 16.1295C8.19581 13.616 6.55278 10.9072 5.20812 8.04833C5.12546 7.86225 4.99093 7.70392 4.82065 7.59227C4.65036 7.48063 4.45152 7.4204 4.24791 7.4188H3.65124C3.46359 7.41712 3.27885 7.46529 3.11592 7.55839C2.95299 7.6515 2.81771 7.78619 2.72389 7.94871C0.829053 11.9957 -0.100449 16.4273 0.00859806 20.8945C-0.0181738 22.5863 0.290302 24.2667 0.916218 25.8388C1.54213 27.4108 2.47311 28.8433 3.65544 30.0537C4.83778 31.2641 6.24808 32.2285 7.80497 32.8911C9.36187 33.5537 11.0345 33.9016 12.7265 33.9145C12.8657 33.9164 13.0039 33.891 13.1333 33.8395C13.2626 33.788 13.3805 33.7116 13.4803 33.6146C13.5801 33.5175 13.6598 33.4018 13.7149 33.274C13.7699 33.1461 13.7993 33.0087 13.8012 32.8695C13.8032 32.7303 13.7777 32.5921 13.7262 32.4628C13.6747 32.3335 13.5983 32.2155 13.5013 32.1157C13.4043 32.016 13.2885 31.9363 13.1606 31.8812C13.0328 31.8261 12.8954 31.7968 12.7562 31.7948H12.7265C11.3108 31.79 9.91022 31.5027 8.60696 30.9496C7.3037 30.3965 6.12398 29.5889 5.1369 28.574C4.14982 27.559 3.37526 26.3573 2.85863 25.0392C2.342 23.721 2.09369 22.313 2.12825 20.8977C2.12825 15.0368 3.35236 11.8648 4.01581 10.399C5.24821 12.8691 6.72373 15.2102 8.42047 17.3875C11.7059 21.6735 16.49 26.2053 22.5628 26.4946H22.6285C23.9176 26.5243 25.1983 26.2799 26.3858 25.7777C27.5734 25.2754 28.6408 24.5267 29.5174 23.5812C31.1138 21.723 32.2383 19.5071 32.7954 17.1215C33.6859 13.2469 34.065 9.27227 33.9231 5.29914C33.9092 4.76873 33.7485 4.25255 33.4589 3.80796C33.2421 3.44799 32.9987 3.10471 32.7308 2.78099C33.1346 2.7015 33.1738 2.70574 33.6581 2.61566C35.0783 2.34964 36.7783 2.11966 37.1026 2.11966C37.9458 2.11966 38.7545 2.45464 39.3508 3.05091C39.9471 3.64717 40.2821 4.45589 40.2821 5.29914C40.2821 6.14239 39.9471 6.95111 39.3508 7.54737C38.7545 8.14364 37.9458 8.47862 37.1026 8.47862H36.0428C35.7617 8.47862 35.4921 8.59028 35.2934 8.78904C35.0946 8.9878 34.9829 9.25737 34.9829 9.53845C34.9207 15.4783 33.1998 21.2825 30.0145 26.2965C25.8112 32.6183 18.2875 38.1538 4.24791 38.1538C3.96683 38.1497 3.69562 38.2575 3.49399 38.4534C3.29235 38.6492 3.17679 38.9172 3.17272 39.1983C3.16864 39.4794 3.27638 39.7505 3.47225 39.9522C3.66813 40.1538 3.9361 40.2694 4.21718 40.2735H4.24791C18.8545 40.2735 27.2589 34.295 31.8034 27.4559C35.0518 22.4188 36.8612 16.5894 37.0358 10.5983H37.1026C38.0172 10.5937 38.9153 10.3534 39.71 9.9006C40.5047 9.44782 41.1694 8.79783 41.6397 8.01336C42.1696 7.8989 43.7721 7.54174 45.879 6.91962C47.1805 6.55364 48.4627 6.12245 49.7209 5.62769C49.5958 10.3388 48.3709 14.9553 46.144 19.1087C45.477 20.3095 44.6771 21.4315 43.7594 22.4535C43.4152 21.7695 42.891 21.1923 42.2431 20.784C41.5953 20.3758 40.8484 20.152 40.0828 20.1367C38.9614 20.1461 37.8886 20.5958 37.0956 21.3888C36.3026 22.1818 35.8529 23.2546 35.8435 24.376C35.852 25.2423 36.1266 26.0849 36.6301 26.7898C37.1336 27.4946 37.8417 28.0276 38.6584 28.3165L38.4602 28.5157C38.3299 28.6485 38.2368 28.8131 38.1903 28.9932C38.1438 29.1733 38.1455 29.3624 38.1953 29.5416C38.4894 30.3677 38.9517 31.1237 39.5529 31.762C40.2487 32.4739 41.0852 33.033 42.009 33.4036C42.9329 33.7743 43.9239 33.9482 44.9188 33.9145C45.7226 33.9075 46.5139 33.7157 47.2317 33.3541C47.9495 32.9924 48.5746 32.4705 49.0585 31.8288C50.26 30.1269 51.074 28.1824 51.4431 26.1322C52.5824 21.1679 53 13.7142 53 3.24095C52.9971 3.16301 52.986 3.08558 52.9671 3.00991C52.9274 2.76469 52.8029 2.54121 52.6151 2.37849C52.4274 2.21577 52.1885 2.12416 51.9402 2.11966H51.0785C50.9472 2.09509 50.8125 2.09509 50.6811 2.11966H41.308C40.8178 1.46609 40.1832 0.934694 39.4537 0.566993C38.7242 0.199292 37.9195 0.00524106 37.1026 0V0ZM42.3021 4.23931H46.8392C46.2033 4.46294 45.9119 4.71729 45.2834 4.9017C44.1801 5.22495 43.1775 5.49839 42.3689 5.69658C42.3784 5.55774 42.4017 5.43162 42.4017 5.29914C42.4047 4.94339 42.3714 4.58827 42.3021 4.23931ZM50.5825 13.7449C50.4901 17.7455 50.0801 21.7324 49.3563 25.668C49.0516 27.3991 48.3861 29.0468 47.403 30.504C47.132 30.9118 46.762 31.2441 46.3275 31.4699C45.893 31.6956 45.4083 31.8075 44.9188 31.7948C44.2158 31.8457 43.5103 31.7415 42.8521 31.4894C42.1939 31.2374 41.5991 30.8438 41.1098 30.3365C40.852 30.0888 40.6587 29.7817 40.547 29.442L41.6726 28.3154C41.8253 28.1671 41.9298 27.9761 41.9724 27.7675C42.015 27.5589 41.9939 27.3423 41.9116 27.1459C41.8294 26.9495 41.6899 26.7824 41.5113 26.6665C41.3328 26.5505 41.1234 26.491 40.9105 26.4957H40.0828C39.5309 26.4643 39.0098 26.2309 38.6189 25.84C38.228 25.4491 37.9946 24.928 37.9632 24.376C37.9632 23.8139 38.1865 23.2747 38.584 22.8772C38.9815 22.4797 39.5207 22.2564 40.0828 22.2564C40.645 22.2564 41.1841 22.4797 41.5817 22.8772C41.9792 23.2747 42.2025 23.8139 42.2025 24.376C42.2051 24.5676 42.2594 24.7548 42.3599 24.9179C42.4604 25.0809 42.6032 25.2137 42.7732 25.3021C42.9431 25.3905 43.1338 25.4312 43.325 25.4198C43.5162 25.4085 43.7007 25.3455 43.859 25.2377C45.5514 23.8293 46.9569 22.1082 47.9987 20.1685C49.1214 18.1405 49.9893 15.9815 50.5825 13.7407V13.7449Z"
          fill="#ED1C24"
    />
</svg>
