<svg width="53" height="45" viewBox="0 0 53 45" fill="none" xmlns="http://www.w3.org/2000/svg">
    <path fill-rule="evenodd"
          clip-rule="evenodd"
          d="M33.9822 0C32.2958 0.00620062 30.6806 0.679924 29.4897 1.87383C28.2988 3.06773 27.6292 4.68465 27.6272 6.37096C26.0815 6.34721 24.566 6.79995 23.2866 7.66766C22.0073 8.53537 21.0261 9.77595 20.4765 11.2208C19.9269 12.6657 19.8355 14.2447 20.2147 15.7433C20.5939 17.242 21.4254 18.5875 22.5961 19.597C23.7668 20.6065 25.2199 21.2311 26.758 21.3859C28.2961 21.5406 29.8446 21.218 31.1929 20.4619C32.5413 19.7058 33.6241 18.5529 34.2942 17.1599C34.9644 15.7668 35.1894 14.2012 34.9386 12.6758C36.5223 12.4279 37.9545 11.5927 38.95 10.3364C39.9455 9.08006 40.4314 7.49487 40.3108 5.89647C40.1902 4.29807 39.472 2.80374 38.2992 1.71104C37.1264 0.618336 35.5851 0.00744018 33.9822 0ZM33.9822 2.12294C35.0795 2.12341 36.1339 2.54969 36.9232 3.312C37.7126 4.07432 38.1753 5.11319 38.214 6.20986C38.2527 7.30654 37.8643 8.37544 37.1307 9.19149C36.397 10.0075 35.3753 10.5071 34.2807 10.5849C33.8367 9.6639 33.2081 8.84398 32.4341 8.17597C31.6601 7.50796 30.757 7.0061 29.781 6.70151C29.7714 6.59488 29.748 6.48186 29.748 6.37096C29.7452 5.81349 29.8527 5.26096 30.0643 4.7452C30.2759 4.22944 30.5875 3.76064 30.9811 3.3658C31.3746 2.97095 31.8424 2.65786 32.3574 2.44456C32.8725 2.23126 33.4247 2.12195 33.9822 2.12294ZM33.5194 3.98145L31.9317 5.57446H33.1889V8.76261H34.7765V3.98145H33.5194ZM27.6272 8.49497C28.6779 8.49181 29.7059 8.80048 30.581 9.38191C31.4562 9.96334 32.1392 10.7914 32.5434 11.7612C32.9477 12.731 33.0551 13.7989 32.8521 14.8298C32.649 15.8607 32.1447 16.8082 31.4028 17.5522C30.661 18.2963 29.7151 18.8035 28.6848 19.0097C27.6545 19.2158 26.5863 19.1116 25.6152 18.7103C24.6442 18.3089 23.8141 17.6285 23.2301 16.7551C22.646 15.8817 22.3342 14.8546 22.3342 13.8039C22.3311 13.1072 22.4658 12.4168 22.7305 11.7723C22.9952 11.1279 23.3847 10.5421 23.8766 10.0487C24.3685 9.55531 24.9531 9.16404 25.5968 8.89739C26.2405 8.63074 26.9305 8.49398 27.6272 8.49497ZM27.0941 10.9165L25.1748 12.8432H26.6676V16.6914H28.5868V10.9165H27.0941ZM14.3649 21.238C12.3257 21.217 10.3095 21.6707 8.47592 22.5633C5.60978 23.7021 0.701725 26.082 0.701725 26.082C0.439511 26.1764 0.224975 26.3701 0.104421 26.6214C-0.016133 26.8726 -0.0330069 27.1612 0.0574658 27.4248C0.147938 27.6883 0.338492 27.9057 0.587933 28.03C0.837373 28.1542 1.12568 28.1753 1.39056 28.0888C1.47419 28.0605 1.55376 28.0214 1.62726 27.9725C1.62726 27.9725 6.57368 25.5947 9.27028 24.5221C10.8431 23.7107 12.5959 23.3113 14.3649 23.3609C20.3105 23.3609 20.1335 26.0426 22.5688 27.5087C23.7727 28.1172 25.052 28.5632 26.3733 28.8351C26.5041 28.91 26.6496 28.9554 26.7998 28.9684C26.8104 28.9684 26.8211 28.9684 26.8328 28.9684C28.4759 29.4069 30.1622 29.663 31.8614 29.7319C32.3951 29.7295 32.9274 29.7852 33.449 29.8982H33.5151C33.8415 29.9699 34.1544 30.0933 34.4417 30.2639C34.6401 30.357 34.8042 30.5099 34.9109 30.7013C35.0177 30.8926 35.0617 31.1126 35.0367 31.3302C35.0738 31.5529 35.0353 31.7817 34.9275 31.9801C34.8197 32.1785 34.6487 32.3352 34.4417 32.4253C33.6354 32.8003 32.7493 32.9713 31.8614 32.9232H25.7079C23.5924 32.8099 21.4956 32.4649 19.4553 31.8943C19.1827 31.8152 18.8898 31.8477 18.6412 31.9846C18.3925 32.1215 18.2084 32.3515 18.1294 32.6241C18.0503 32.8967 18.0828 33.1896 18.2197 33.4382C18.3566 33.6869 18.5866 33.871 18.8593 33.95C21.0903 34.5869 23.3895 34.9545 25.7079 35.0451H31.8614C33.1257 35.1136 34.385 34.8375 35.5048 34.2465C35.7881 34.0749 36.0443 33.8621 36.2651 33.6152C36.3591 33.5841 36.4482 33.5396 36.5295 33.483L46.0577 27.0459C47.0855 26.3343 48.2848 25.9102 49.5316 25.8176C49.7464 25.7926 49.9639 25.8255 50.1617 25.9128C50.3595 26.0002 50.5303 26.1389 50.6565 26.3145C50.8013 26.461 50.893 26.6517 50.917 26.8563C50.941 27.0609 50.8958 27.2677 50.7887 27.4437C50.3656 28.2174 49.7501 28.8689 49.0016 29.3352C47.7306 30.2394 33.7401 39.565 32.097 40.5183C31.0697 41.2437 29.9602 41.845 28.7916 42.3096C27.6709 42.6295 26.3295 42.606 24.1607 41.5483C22.7138 40.8403 16.5902 37.6308 14.5995 36.6029C13.7127 36.0621 12.6942 35.7755 11.6555 35.7744C10.7091 35.8825 9.80766 36.237 9.04104 36.8023L6.19516 38.6576C5.95747 38.8112 5.79053 39.0529 5.73104 39.3295C5.67155 39.6062 5.7244 39.8951 5.87796 40.1328C6.03151 40.3705 6.27319 40.5374 6.54984 40.5969C6.82649 40.6564 7.11544 40.6036 7.35312 40.45L10.1979 38.5926C10.6498 38.2331 11.1848 37.993 11.7536 37.8942C12.4236 37.9258 13.0736 38.1324 13.6388 38.4934C15.6061 39.5117 21.6358 42.6935 23.2352 43.4697C25.0924 44.5224 27.2799 44.8307 29.3556 44.3323C30.7095 43.847 31.9898 43.1767 33.1601 42.3405C35.3651 41.061 48.637 32.1918 50.23 31.0573C51.3157 30.3717 52.1869 29.3948 52.7442 28.238C52.9654 27.7138 53.0452 27.1408 52.9756 26.5761C52.906 26.0114 52.6894 25.4748 52.3476 25.02C52.0143 24.6038 51.5913 24.2683 51.1101 24.0384C50.629 23.8085 50.1021 23.6903 49.5689 23.6925C48.4853 23.7471 47.4254 24.0298 46.4586 24.5221C46.4733 24.3005 46.4622 24.0779 46.4255 23.8589C46.218 23.4654 45.9216 23.1256 45.56 22.8665C45.1984 22.6074 44.7814 22.4361 44.342 22.3661C43.0178 22.2084 41.6772 22.4635 40.5035 23.0965C40.4352 22.7988 40.3115 22.5167 40.1388 22.2648C39.8638 21.9681 39.5315 21.7301 39.1621 21.5652C38.7927 21.4003 38.3937 21.3118 37.9892 21.3051C36.5028 21.231 35.0281 21.6023 33.754 22.3714C32.1695 23.3172 27.4374 26.3166 26.7411 26.7506C25.6842 26.4924 24.6539 26.1354 23.6639 25.6843C22.6914 25.1 21.0398 21.238 14.3649 21.238ZM37.8229 23.426C38.0746 23.4201 38.3205 23.5023 38.5181 23.6584C38.5661 23.7172 38.6 23.7862 38.6172 23.8601C38.6344 23.9341 38.6344 24.011 38.6172 24.0849C38.6172 24.0945 38.6172 24.1084 38.6172 24.118L33.3925 27.7017C32.8885 27.6308 32.3799 27.5977 31.871 27.6025C31.1494 27.5772 30.4306 27.4996 29.7203 27.3701C31.5607 26.21 33.8393 24.7876 34.848 24.1862C35.7605 23.6912 36.7815 23.43 37.8197 23.426H37.8229ZM43.2491 24.4219C43.4794 24.3899 43.713 24.3899 43.9433 24.4219C44.0596 24.4139 44.1756 24.4413 44.2761 24.5005C44.3766 24.5596 44.4568 24.6478 44.5062 24.7535C44.5722 25.0026 44.5834 25.263 44.5393 25.5169L37.0626 30.5614C36.8808 29.7927 36.4361 29.1115 35.8055 28.6358L40.1772 25.6161C40.2369 25.5781 40.2923 25.5337 40.3424 25.4839C40.4018 25.4445 40.4575 25.3999 40.5088 25.3506C41.3437 24.8479 42.2774 24.5314 43.2459 24.4229L43.2491 24.4219Z"
          fill="#ED1C24"
    />
</svg>
