<svg width="53" height="54" viewBox="0 0 53 54" fill="none" xmlns="http://www.w3.org/2000/svg">
    <path fill-rule="evenodd"
          clip-rule="evenodd"
          d="M17.2621 0C12.7748 0.00763705 8.46627 1.75934 5.24673 4.88501C2.02718 8.01068 0.14885 12.2655 0.00847249 16.7506C-0.131905 21.2356 1.47667 25.5996 4.49445 28.9205C7.51222 32.2414 11.7028 34.2591 16.1808 34.5473C16.4865 34.5664 16.7873 34.4633 17.017 34.2606C17.2467 34.0579 17.3865 33.7723 17.4056 33.4666C17.4247 33.1609 17.3216 32.8601 17.1189 32.6304C16.9162 32.4007 16.6306 32.2609 16.3249 32.2418C13.4457 32.0627 10.6793 31.0564 8.35802 29.3437C6.03669 27.6311 4.25899 25.2848 3.23839 22.5866C2.21779 19.8884 1.99765 16.953 2.60438 14.1328C3.21112 11.3125 4.61894 8.72737 6.65884 6.68761C8.69875 4.64785 11.2841 3.24021 14.1043 2.63369C16.9246 2.02716 19.86 2.24752 22.5581 3.26832C25.2562 4.28912 27.6023 6.06697 29.3148 8.38842C31.0273 10.7099 32.0334 13.4763 32.2123 16.3555C32.2218 16.5069 32.2611 16.6549 32.3278 16.7911C32.3946 16.9273 32.4875 17.049 32.6013 17.1493C32.7151 17.2496 32.8475 17.3265 32.991 17.3757C33.1346 17.4248 33.2863 17.4452 33.4377 17.4356C33.5891 17.4261 33.7371 17.3868 33.8734 17.3201C34.0096 17.2533 34.1313 17.1604 34.2316 17.0466C34.3319 16.9328 34.4088 16.8004 34.4579 16.6569C34.507 16.5134 34.5274 16.3616 34.5178 16.2102C34.2428 11.8203 32.3051 7.70028 29.0993 4.68872C25.8935 1.67716 21.6606 0.000481823 17.2621 0V0ZM50.6923 1.15277C50.4643 1.15277 50.2415 1.22038 50.0519 1.34704C49.8624 1.47371 49.7146 1.65375 49.6273 1.86439C49.5401 2.07503 49.5173 2.30681 49.5617 2.53043C49.6062 2.75405 49.716 2.95945 49.8772 3.12067C50.0384 3.28188 50.2439 3.39167 50.4675 3.43615C50.6911 3.48063 50.9229 3.45781 51.1335 3.37055C51.3441 3.2833 51.5242 3.13555 51.6508 2.94598C51.7775 2.75641 51.8451 2.53353 51.8451 2.30554C51.8459 2.15367 51.8166 2.00315 51.759 1.86262C51.7014 1.72209 51.6166 1.59433 51.5095 1.48668C51.4024 1.37902 51.2751 1.29359 51.1348 1.2353C50.9946 1.17701 50.8442 1.147 50.6923 1.147V1.15277ZM47.234 4.61107C47.006 4.61107 46.7832 4.67868 46.5936 4.80535C46.4041 4.93202 46.2563 5.11205 46.169 5.3227C46.0818 5.53334 46.059 5.76512 46.1034 5.98873C46.1479 6.21235 46.2577 6.41775 46.4189 6.57897C46.5801 6.74019 46.7856 6.84998 47.0092 6.89446C47.2328 6.93894 47.4646 6.91611 47.6752 6.82886C47.8858 6.74161 48.0659 6.59386 48.1925 6.40428C48.3192 6.21471 48.3868 5.99184 48.3868 5.76384C48.3868 5.45811 48.2653 5.1649 48.0492 4.94871C47.833 4.73252 47.5398 4.61107 47.234 4.61107ZM43.7757 8.06938C43.5477 8.06938 43.3249 8.13698 43.1353 8.26365C42.9458 8.39032 42.798 8.57036 42.7107 8.781C42.6235 8.99164 42.6007 9.22342 42.6451 9.44704C42.6896 9.67065 42.7994 9.87606 42.9606 10.0373C43.1218 10.1985 43.3273 10.3083 43.5509 10.3528C43.7745 10.3972 44.0062 10.3744 44.2169 10.2872C44.4275 10.1999 44.6076 10.0522 44.7342 9.86259C44.8609 9.67302 44.9285 9.45014 44.9285 9.22214C44.9285 8.91641 44.807 8.6232 44.5908 8.40701C44.3747 8.19083 44.0815 8.06938 43.7757 8.06938ZM14.0193 10.5144L12.7225 17.6477H15.1006C15.318 17.3249 15.614 17.0627 15.9606 16.8858C16.3073 16.7089 16.6933 16.6232 17.0822 16.6367C17.394 16.6268 17.7042 16.6839 17.992 16.8043C18.2797 16.9247 18.5383 17.1055 18.75 17.3345C18.9618 17.5636 19.1218 17.8354 19.2193 18.1317C19.3168 18.428 19.3495 18.7418 19.3152 19.0518C19.3344 19.3622 19.2917 19.6733 19.1895 19.9671C19.0873 20.2608 18.9276 20.5312 18.7197 20.7626C18.5119 20.9939 18.26 21.1816 17.9789 21.3146C17.6978 21.4476 17.3929 21.5232 17.0822 21.5372C16.5458 21.5514 16.0247 21.3573 15.6284 20.9955C15.232 20.6338 14.9912 20.1325 14.9565 19.5971H12.3259C12.3006 21.1487 13.4141 23.6675 17.118 23.6675C17.7374 23.6873 18.3545 23.583 18.933 23.3606C19.5114 23.1381 20.0394 22.8021 20.4859 22.3724C20.9324 21.9426 21.2884 21.4278 21.5327 20.8583C21.7771 20.2888 21.905 19.6761 21.9089 19.0564C21.9089 18.1642 21.4604 14.6598 17.9468 14.6598C17.4781 14.6341 17.0095 14.7114 16.5737 14.886C16.138 15.0606 15.7458 15.3285 15.4246 15.6707L15.3888 15.635L15.8926 12.6804H21.2241V10.5144H14.0193ZM40.3174 11.5277C40.0894 11.5277 39.8666 11.5953 39.677 11.722C39.4874 11.8486 39.3397 12.0287 39.2524 12.2393C39.1651 12.4499 39.1423 12.6817 39.1868 12.9053C39.2313 13.129 39.3411 13.3344 39.5023 13.4956C39.6635 13.6568 39.8689 13.7666 40.0926 13.8111C40.3162 13.8555 40.5479 13.8327 40.7586 13.7455C40.9692 13.6582 41.1493 13.5105 41.2759 13.3209C41.4026 13.1313 41.4702 12.9084 41.4702 12.6804C41.4702 12.3747 41.3487 12.0815 41.1325 11.8653C40.9164 11.6491 40.6232 11.5277 40.3174 11.5277ZM36.8591 14.986C36.6311 14.986 36.4083 15.0536 36.2187 15.1803C36.0291 15.3069 35.8813 15.487 35.7941 15.6976C35.7068 15.9082 35.684 16.14 35.7285 16.3636C35.773 16.5873 35.8828 16.7927 36.044 16.9539C36.2052 17.1151 36.4106 17.2249 36.6343 17.2694C36.8579 17.3139 37.0896 17.291 37.3003 17.2038C37.5109 17.1165 37.691 16.9688 37.8176 16.7792C37.9443 16.5896 38.0119 16.3667 38.0119 16.1388C38.0119 15.833 37.8904 15.5398 37.6742 15.3236C37.4581 15.1074 37.1649 14.986 36.8591 14.986ZM33.4008 18.4443C33.1728 18.4443 32.95 18.5119 32.7604 18.6386C32.5708 18.7652 32.423 18.9453 32.3358 19.1559C32.2485 19.3666 32.2257 19.5983 32.2702 19.822C32.3147 20.0456 32.4245 20.251 32.5857 20.4122C32.7469 20.5734 32.9523 20.6832 33.176 20.7277C33.3996 20.7722 33.6313 20.7493 33.842 20.6621C34.0526 20.5748 34.2327 20.4271 34.3593 20.2375C34.486 20.0479 34.5536 19.8251 34.5536 19.5971C34.5536 19.2913 34.4321 18.9981 34.2159 18.7819C33.9997 18.5657 33.7066 18.4443 33.4008 18.4443ZM36.4268 18.4812C36.2755 18.4953 36.1284 18.5392 35.9939 18.6102C35.8595 18.6812 35.7403 18.778 35.6432 18.895C35.5462 19.0121 35.4732 19.1471 35.4284 19.2924C35.3835 19.4377 35.3677 19.5903 35.3819 19.7417C35.396 19.8931 35.4398 20.0402 35.5108 20.1747C35.5818 20.3091 35.6787 20.4283 35.7957 20.5253C35.9128 20.6223 36.0478 20.6954 36.193 20.7402C36.3383 20.7851 36.491 20.8009 36.6424 20.7867C39.5217 20.9656 42.2881 21.9717 44.6096 23.6842C46.931 25.3968 48.7089 27.743 49.7297 30.4412C50.7505 33.1393 50.9708 36.0748 50.3642 38.8951C49.7576 41.7154 48.3498 44.3007 46.3099 46.3406C44.2701 48.3804 41.6848 49.7882 38.8645 50.3948C36.0442 51.0014 33.1087 50.7811 30.4105 49.7603C27.7124 48.7395 25.3661 46.9617 23.6536 44.6402C21.941 42.3187 20.935 39.5523 20.7561 36.673C20.7372 36.3673 20.5975 36.0816 20.3679 35.8788C20.1384 35.676 19.8376 35.5728 19.5319 35.5917C19.2261 35.6107 18.9404 35.7503 18.7376 35.9799C18.5349 36.2095 18.4316 36.5102 18.4506 36.816C18.6581 40.1376 19.8198 43.3288 21.7962 46.0065C23.7726 48.6842 26.4798 50.7347 29.5928 51.9118C32.7058 53.0889 36.0923 53.3426 39.346 52.6425C42.5996 51.9424 45.582 50.3182 47.9354 47.9649C50.2887 45.6115 51.913 42.629 52.6131 39.3754C53.3132 36.1217 53.0594 32.7352 51.8823 29.6222C50.7052 26.5092 48.6548 23.802 45.9771 21.8256C43.2994 19.8492 40.1082 18.6875 36.7865 18.48C36.7385 18.4766 36.6904 18.4766 36.6424 18.48C36.6067 18.4775 36.5709 18.4775 36.5352 18.48C36.4992 18.476 36.463 18.4744 36.4268 18.4754V18.4812ZM29.9425 21.9026C29.7145 21.9026 29.4917 21.9702 29.3021 22.0969C29.1125 22.2235 28.9647 22.4036 28.8775 22.6142C28.7902 22.8249 28.7674 23.0566 28.8119 23.2803C28.8564 23.5039 28.9662 23.7093 29.1274 23.8705C29.2886 24.0317 29.494 24.1415 29.7176 24.186C29.9413 24.2305 30.173 24.2076 30.3837 24.1204C30.5943 24.0331 30.7744 23.8854 30.901 23.6958C31.0277 23.5062 31.0953 23.2834 31.0953 23.0554C31.0953 22.7496 30.9738 22.4564 30.7576 22.2402C30.5414 22.024 30.2482 21.9026 29.9425 21.9026ZM26.4842 25.3609C26.2562 25.3609 26.0334 25.4285 25.8438 25.5552C25.6542 25.6818 25.5064 25.8619 25.4192 26.0725C25.3319 26.2832 25.3091 26.5149 25.3536 26.7386C25.3981 26.9622 25.5079 27.1676 25.6691 27.3288C25.8303 27.49 26.0357 27.5998 26.2593 27.6443C26.483 27.6888 26.7147 27.6659 26.9254 27.5787C27.136 27.4914 27.316 27.3437 27.4427 27.1541C27.5694 26.9645 27.637 26.7417 27.637 26.5137C27.637 26.2079 27.5155 25.9147 27.2993 25.6985C27.0831 25.4823 26.7899 25.3609 26.4842 25.3609ZM23.0259 28.8192C22.7979 28.8192 22.5751 28.8868 22.3855 29.0135C22.1959 29.1401 22.0481 29.3202 21.9609 29.5308C21.8736 29.7415 21.8508 29.9732 21.8953 30.1969C21.9398 30.4205 22.0496 30.6259 22.2108 30.7871C22.372 30.9483 22.5774 31.0581 22.801 31.1026C23.0247 31.1471 23.2564 31.1242 23.4671 31.037C23.6777 30.9497 23.8577 30.802 23.9844 30.6124C24.1111 30.4228 24.1787 30.2 24.1787 29.972C24.1787 29.6662 24.0572 29.373 23.841 29.1568C23.6248 28.9407 23.3316 28.8192 23.0259 28.8192ZM35.0942 29.6123C34.7865 30.3644 34.263 31.0086 33.5897 31.4636C32.9164 31.9186 32.1235 32.1641 31.3109 32.1691V34.1519H34.5536V42.5371H37.1831V29.6077H35.0942V29.6123ZM19.5676 32.2775C19.3396 32.2775 19.1168 32.3451 18.9272 32.4718C18.7376 32.5984 18.5898 32.7785 18.5026 32.9891C18.4153 33.1998 18.3925 33.4316 18.437 33.6552C18.4815 33.8788 18.5913 34.0842 18.7525 34.2454C18.9137 34.4066 19.1191 34.5164 19.3427 34.5609C19.5664 34.6054 19.7981 34.5825 20.0088 34.4953C20.2194 34.408 20.3994 34.2603 20.5261 34.0707C20.6528 33.8811 20.7204 33.6583 20.7204 33.4303C20.7204 33.1245 20.5989 32.8313 20.3827 32.6151C20.1665 32.399 19.8733 32.2775 19.5676 32.2775ZM16.1093 35.7358C15.8813 35.7358 15.6585 35.8034 15.4689 35.9301C15.2793 36.0568 15.1315 36.2368 15.0443 36.4474C14.957 36.6581 14.9342 36.8899 14.9787 37.1135C15.0232 37.3371 15.133 37.5425 15.2942 37.7037C15.4554 37.8649 15.6608 37.9747 15.8844 38.0192C16.108 38.0637 16.3398 38.0408 16.5505 37.9536C16.7611 37.8663 16.9411 37.7186 17.0678 37.529C17.1945 37.3394 17.2621 37.1166 17.2621 36.8886C17.2621 36.5828 17.1406 36.2896 16.9244 36.0734C16.7082 35.8573 16.415 35.7358 16.1093 35.7358ZM12.651 39.1941C12.423 39.1941 12.2002 39.2617 12.0106 39.3884C11.821 39.5151 11.6732 39.6951 11.586 39.9057C11.4987 40.1164 11.4759 40.3482 11.5204 40.5718C11.5649 40.7954 11.6747 41.0008 11.8359 41.162C11.9971 41.3232 12.2025 41.433 12.4261 41.4775C12.6497 41.522 12.8815 41.4991 13.0922 41.4119C13.3028 41.3246 13.4828 41.1769 13.6095 40.9873C13.7362 40.7978 13.8038 40.5749 13.8038 40.3469C13.8038 40.0411 13.6823 39.7479 13.4661 39.5317C13.2499 39.3156 12.9567 39.1941 12.651 39.1941ZM9.19269 42.6524C8.9647 42.6524 8.74185 42.72 8.55228 42.8467C8.36271 42.9734 8.21491 43.1534 8.12766 43.364C8.04041 43.5747 8.01761 43.8065 8.06209 44.0301C8.10657 44.2537 8.21636 44.4591 8.37758 44.6203C8.5388 44.7815 8.74421 44.8913 8.96782 44.9358C9.19144 44.9803 9.42321 44.9575 9.63385 44.8702C9.84449 44.783 10.0245 44.6352 10.1512 44.4456C10.2779 44.2561 10.3455 44.0332 10.3455 43.8052C10.3455 43.4995 10.224 43.2062 10.0078 42.9901C9.79162 42.7739 9.49843 42.6524 9.19269 42.6524ZM5.73439 46.1107C5.50639 46.1107 5.28355 46.1783 5.09398 46.305C4.90441 46.4317 4.75661 46.6117 4.66936 46.8223C4.58211 47.033 4.5593 47.2648 4.60378 47.4884C4.64826 47.712 4.75806 47.9174 4.91928 48.0786C5.08049 48.2398 5.2859 48.3496 5.50952 48.3941C5.73314 48.4386 5.9649 48.4158 6.17554 48.3285C6.38618 48.2413 6.56623 48.0935 6.69289 47.9039C6.81956 47.7144 6.88716 47.4915 6.88716 47.2635C6.88716 46.9578 6.76569 46.6645 6.5495 46.4484C6.33332 46.2322 6.04012 46.1107 5.73439 46.1107ZM2.27608 49.569C2.04809 49.569 1.82525 49.6366 1.63567 49.7633C1.4461 49.89 1.29831 50.07 1.21106 50.2806C1.1238 50.4913 1.101 50.7231 1.14548 50.9467C1.18996 51.1703 1.29975 51.3757 1.46097 51.5369C1.62219 51.6981 1.8276 51.8079 2.05122 51.8524C2.27483 51.8969 2.5066 51.8741 2.71724 51.7868C2.92788 51.6996 3.10792 51.5518 3.23459 51.3622C3.36126 51.1727 3.42885 50.9498 3.42885 50.7218C3.42885 50.4161 3.30738 50.1228 3.0912 49.9067C2.87501 49.6905 2.58182 49.569 2.27608 49.569Z"
          fill="#ED1C24"
    />
</svg>
