<svg width="46" height="46" viewBox="0 0 46 46" fill="none" xmlns="http://www.w3.org/2000/svg">
    <path fill-rule="evenodd"
          clip-rule="evenodd"
          d="M22.906 0.00256483C22.7362 0.0234923 22.5746 0.0879036 22.437 0.189565L0.437012 15.1846C0.304355 15.2749 0.195385 15.3959 0.119324 15.5372C0.0432623 15.6785 0.00233186 15.8361 0 15.9966V18.9966C0 19.2618 0.105371 19.5161 0.292908 19.7037C0.480444 19.8912 0.734784 19.9966 1 19.9966H3V44.9906C3 45.2558 3.10537 45.5101 3.29291 45.6977C3.48044 45.8852 3.73478 45.9906 4 45.9906H42C42.2652 45.9906 42.5196 45.8852 42.7071 45.6977C42.8946 45.5101 43 45.2558 43 44.9906V19.9956H45C45.2652 19.9956 45.5196 19.8902 45.7071 19.7027C45.8946 19.5151 46 19.2608 46 18.9956V15.9956C45.9976 15.835 45.9565 15.6774 45.8802 15.536C45.804 15.3947 45.6949 15.2738 45.562 15.1836L23.562 0.188565C23.3719 0.0516273 23.1397 -0.0142019 22.906 0.00256483ZM23 2.19056L44 16.4976V17.9976H42.281L23.562 5.19056C23.3961 5.07771 23.2001 5.01736 22.9995 5.01736C22.7989 5.01736 22.6029 5.07771 22.437 5.19056L3.71802 17.9966H2V16.4966L23 2.19056ZM23 7.21956L41 19.4906V43.9906H5V19.4906L23 7.21956ZM23 28.9906C23.926 28.9389 24.8451 28.7999 25.745 28.5756C26.5198 28.4257 27.2578 28.1254 27.917 27.6916C28.5571 27.2606 29.079 26.6762 29.435 25.9916C29.8449 25.157 30.0414 24.2337 30.007 23.3046C30.018 22.2724 29.7503 21.2563 29.232 20.3636C28.7732 19.5287 28.0424 18.8761 27.161 18.5146C25.8125 18.1113 24.4064 17.9343 23 17.9906H18V26.9906H16V28.9906H18V30.9906H16V32.9906H18V37.9906H20V32.9906H27V30.9906H20V28.9906H23ZM20 27.0056V19.9906H23.726C24.2911 19.9868 24.8546 20.0496 25.405 20.1776C25.8918 20.2892 26.3527 20.4928 26.763 20.7776C27.1492 21.0523 27.4629 21.4167 27.677 21.8396C27.9136 22.3357 28.0285 22.8811 28.012 23.4306C28.0364 24.0426 27.9097 24.6512 27.643 25.2026C27.4092 25.6463 27.0647 26.0221 26.643 26.2936C26.1974 26.5735 25.7009 26.7628 25.182 26.8506C24.6054 26.9536 24.0207 27.0045 23.435 27.0026H20V27.0056Z"
          fill="#ED1C24"
    />
</svg>
