<svg version="1.1" xmlns="http://www.w3.org/2000/svg" width="64px" height="64px" viewBox="0 0 64 64">
  <path fill="#FFFFFF"
        d="M39.646,64c-0.005,0-0.011,0-0.015,0l0,0c-0.09-0.001-0.18-0.014-0.268-0.039l-34.97-8.813
	c-0.046-0.011-0.092-0.027-0.136-0.045l0,0c-0.092-0.032-0.178-0.079-0.256-0.136c-0.091-0.066-0.172-0.145-0.242-0.232l0,0
	c-0.083-0.109-0.148-0.23-0.193-0.359c-0.044-0.13-0.066-0.265-0.065-0.4V16.828c0-0.1,0.011-0.201,0.035-0.299l0,0l0,0l0,0
	c0.013-0.054,0.03-0.104,0.05-0.156l0,0l0,0l0,0l0,0l0,0l0,0c0.075-0.184,0.195-0.346,0.349-0.472l0,0l0,0l0,0l0,0l0,0l0,0l0,0l0,0
	L23.649,0.25c0.01-0.009,0.021-0.017,0.033-0.023c0.222-0.166,0.497-0.245,0.772-0.223l0,0c0.024,0.001,0.049,0.005,0.072,0.009l0,0
	c0.04,0.005,0.078,0.014,0.116,0.025l34.969,8.816c0.047,0.01,0.095,0.025,0.143,0.044c0.082,0.032,0.159,0.073,0.232,0.123l0,0
	c0.104,0.071,0.197,0.158,0.272,0.259l0,0l0,0l0,0c0.073,0.099,0.132,0.208,0.173,0.324l0,0c0.032,0.088,0.053,0.181,0.063,0.274
	c0,0.048,0.007,0.093,0,0.139v37.146c0.001,0.106-0.013,0.212-0.037,0.316l0,0l0,0l0,0l0,0l0,0c-0.01,0.033-0.021,0.068-0.032,0.101
	l0,0l0,0l0,0l0,0l0,0l0,0c-0.072,0.196-0.198,0.37-0.359,0.506l0,0l0,0l0,0l0,0l0,0l0,0L40.353,63.738l0,0l0,0
	c-0.15,0.119-0.325,0.2-0.513,0.234l0,0l0,0l0,0l0,0C39.775,63.986,39.711,63.996,39.646,64z M7.27,53.417l31.215,7.87v-18.17
	l-13.852-3.492L7.27,53.417z M40.806,43.702V60.38l15.941-12.656L40.806,43.702z M5.818,18.338v33.221l17.395-13.814V22.728
	L5.818,18.338z M40.807,41.247l17.396,4.385v-33.22L40.807,26.224V41.247L40.807,41.247z M25.533,37.396l12.954,3.259V26.571
	l-12.954-3.259V37.396z M25.533,20.853l13.847,3.492l17.367-13.791l-31.215-7.87L25.533,20.853L25.533,20.853L25.533,20.853z
	 M7.271,16.25l15.942,4.017V3.591L7.271,16.25z"
  />
</svg>
