<svg version="1.1" xmlns="http://www.w3.org/2000/svg" width="64px" height="64px" viewBox="0 0 64 64">
  <path fill="#FFFFFF"
        d="M16.217,0c-3.811,0-6.899,3.089-6.899,6.899c0,3.811,3.088,6.898,6.899,6.898
	s6.899-3.088,6.899-6.898C23.105,3.094,20.022,0.011,16.217,0z M45.173,0c-3.811,0-6.899,3.089-6.899,6.899
	c0,3.811,3.089,6.898,6.899,6.898c3.809,0,6.898-3.088,6.898-6.898C52.061,3.092,48.975,0.008,45.169,0H45.173z M16.217,2.759
	c2.287,0,4.14,1.854,4.14,4.14c0,2.287-1.853,4.139-4.14,4.139s-4.139-1.853-4.139-4.139c-0.014-2.273,1.819-4.126,4.092-4.14
	C16.186,2.759,16.201,2.759,16.217,2.759z M45.173,2.759c2.285,0,4.139,1.854,4.139,4.14c0,2.287-1.854,4.139-4.139,4.139
	c-2.287,0-4.14-1.853-4.14-4.139c-0.014-2.273,1.819-4.126,4.092-4.14c0.014,0,0.028,0,0.044,0H45.173z M10.008,15.177
	c-4.187,0.012-7.577,3.404-7.588,7.589v16.986c-0.01,0.216,0.005,0.431,0.043,0.644c0.201,2.117,1.97,3.739,4.096,3.757
	c0.472-0.004,0.939-0.092,1.38-0.257v15.903c0.001,2.023,1.64,3.665,3.665,3.671h2.326c1.258-1.262,3.301-1.265,4.562-0.006
	c0.001,0.001,0.004,0.003,0.007,0.006h2.326c2.021-0.006,3.657-1.643,3.663-3.663v-9.012c0.44,0.166,0.908,0.254,1.379,0.259v8.969
	c0.008,1.901,1.548,3.441,3.45,3.449h4.139c1.901-0.008,3.439-1.548,3.449-3.449v-8.971c0.472-0.006,0.938-0.094,1.38-0.259v8.537
	c1.521,3.808,5.843,5.659,9.65,4.138c1.888-0.755,3.382-2.25,4.138-4.138V48.292h3.576c0.901-0.002,1.743-0.454,2.241-1.207v-0.044
	c0.467-0.729,0.594-1.627,0.345-2.457v-0.043l-0.569-1.769c1.339,0.028,2.595-0.641,3.319-1.765c0.654-1.142,0.78-2.512,0.344-3.753
	c-1.267-3.914-5.559-16.988-5.559-16.988c-0.353-1.14-0.956-2.186-1.767-3.062c-1.218-1.293-2.914-2.026-4.69-2.026H46.64
	c-0.028,0-0.057,0-0.085,0h-5.519c-1.777-0.003-3.476,0.73-4.692,2.026c-0.511,0.571-0.459,1.449,0.112,1.959
	c0.553,0.492,1.395,0.465,1.913-0.062c0.671-0.771,1.652-1.198,2.672-1.166h5.52c0.043,0.002,0.086,0.002,0.129,0h2.622
	c1.021-0.031,2.001,0.396,2.672,1.166c0.535,0.587,0.945,1.276,1.206,2.026c0,0,4.251,13.04,5.52,16.946
	c0.196,0.471,0.181,1.004-0.043,1.464c-0.201,0.346-0.595,0.535-0.99,0.476c-0.556-0.001-1.052-0.345-1.251-0.864
	c0-0.012,0-0.029,0-0.04c-0.022-0.136-0.066-0.267-0.128-0.39l-3.836-11.555c-0.205-0.734-0.965-1.163-1.699-0.959
	c-0.682,0.19-1.109,0.865-0.989,1.562c0.013,0.088,0.032,0.174,0.061,0.259l3.878,11.645c0.028,0.12,0.071,0.236,0.13,0.344
	l1.767,5.39v0.043c-0.006,0.032-0.021,0.063-0.044,0.085H45.266c-0.029,0-0.058,0-0.086,0h-4.14v-8.278
	c-0.011-3.044-2.476-5.508-5.52-5.52h-8.277c-3.044,0.011-5.508,2.476-5.52,5.52v2.542c-0.002,0.045-0.002,0.088,0,0.133v19.87
	c0.017,0.485-0.362,0.891-0.846,0.908c-0.02,0-0.039,0-0.059,0h-2.326c-0.484,0.011-0.885-0.372-0.896-0.857
	c-0.001-0.016,0-0.033,0-0.051V42.293c0.005-0.761-0.608-1.384-1.369-1.389c-0.061-0.002-0.123,0.002-0.183,0.011
	c-0.694,0.087-1.211,0.68-1.206,1.379v17.505c0.018,0.485-0.362,0.891-0.846,0.908c-0.02,0-0.039,0-0.059,0h-2.326
	c-0.484,0.019-0.891-0.358-0.91-0.842c-0.001-0.021-0.001-0.045,0-0.066V26.215c0.028-0.761-0.567-1.401-1.329-1.429l0,0
	c-0.059-0.004-0.12-0.004-0.179,0c-0.058,0.013-0.116,0.027-0.172,0.044c-0.643,0.144-1.094,0.722-1.078,1.379v13.581
	c0,0.046,0,0.088,0,0.132v0.091c0.023,0.762-0.575,1.398-1.338,1.421c-0.761,0.024-1.398-0.575-1.421-1.337v-0.084
	c0.008-0.085,0.008-0.173,0-0.258v-16.99c-0.007-2.66,2.144-4.822,4.805-4.829c0.008,0,0.017,0,0.024,0h12.41
	c0.986-0.005,1.951,0.296,2.76,0.862c0.597,0.474,1.465,0.375,1.939-0.222c0.457-0.577,0.381-1.412-0.172-1.897
	c-0.054-0.044-0.112-0.085-0.171-0.121c-1.276-0.896-2.796-1.377-4.354-1.38H10.008V15.177z M31.381,19.317
	c-3.048,0-5.519,2.471-5.519,5.519s2.471,5.519,5.519,5.519c3.047,0,5.519-2.471,5.519-5.519
	C36.889,21.792,34.424,19.328,31.381,19.317z M31.381,22.076c1.524,0,2.759,1.236,2.759,2.76s-1.235,2.759-2.759,2.759
	s-2.759-1.235-2.759-2.759c-0.012-1.512,1.205-2.748,2.718-2.76C31.353,22.076,31.366,22.076,31.381,22.076z M27.242,34.494h8.278
	c1.511-0.012,2.746,1.202,2.76,2.712c0,0.017,0,0.033,0,0.048v9.399c-0.003,0.042-0.003,0.085,0,0.128v0.131
	c0.012,0.75-0.586,1.367-1.336,1.38c-0.015,0-0.029,0-0.044,0h-1.38c-0.763,0-1.38,0.618-1.38,1.38V60.02
	c0.01,0.372-0.284,0.681-0.656,0.69c-0.012,0-0.022,0-0.033,0h-4.139c-0.372,0.009-0.68-0.284-0.689-0.656c0-0.013,0-0.023,0-0.034
	V49.672c0-0.762-0.619-1.38-1.38-1.38h-1.38c-0.75,0.012-1.368-0.585-1.38-1.336c0-0.015,0-0.029,0-0.044v-9.658
	c-0.013-1.511,1.201-2.746,2.712-2.76c0.016,0,0.032,0,0.05,0H27.242z M41.029,48.292h2.76V59.33c0,0.763-0.619,1.38-1.38,1.38
	c-0.763,0-1.38-0.617-1.38-1.38V48.292z M46.548,48.292h2.76V59.33c0,0.763-0.618,1.38-1.38,1.38c-0.763,0-1.38-0.617-1.38-1.38
	V48.292z"
  />
</svg>
