<svg version="1.1" xmlns="http://www.w3.org/2000/svg" width="64px" height="64px" viewBox="0 0 64 64">
  <path fill="#FFFFFF"
        d="M8.074,2.366C7.507,2.474,7.101,2.975,7.111,3.552v1.704L1.519,3.59
	C1.374,3.548,1.224,3.535,1.074,3.552c-0.036,0-0.073,0-0.11,0C0.397,3.659-0.01,4.159,0,4.737v54.526
	c-0.006,0.655,0.52,1.19,1.175,1.196l0,0c0.116,0.001,0.231-0.016,0.344-0.048l5.592-1.667v1.704c0,0.655,0.531,1.186,1.185,1.186
	h47.406c0.655,0,1.186-0.53,1.186-1.186v-1.704l5.593,1.667c0.628,0.186,1.287-0.176,1.471-0.803v-0.002
	C63.983,59.494,64,59.379,64,59.263V4.737c0.005-0.654-0.522-1.189-1.176-1.193c-0.053-0.001-0.105,0.001-0.158,0.008
	c-0.063,0.007-0.125,0.02-0.185,0.038l-5.594,1.667V3.552c0-0.655-0.53-1.186-1.186-1.186H8.296c-0.038,0-0.074,0-0.111,0
	C8.148,2.366,8.11,2.366,8.074,2.366z M9.48,4.737h45.036v1.223L50.74,7.107H13.259L9.48,5.959V4.737z M2.369,6.33l9.483,2.853
	v16.743l-9.483-0.926V6.33z M61.622,6.33v18.676l-9.482,0.926V9.183L61.622,6.33z M14.221,9.479h35.555v45.043H14.221V9.479z
	 M2.367,27.407l9.483,0.926v26.485L2.367,57.67V27.407L2.367,27.407z M61.621,27.407v30.261l-9.482-2.852V28.334L61.621,27.407z
	 M13.259,56.893h37.478l3.78,1.148v1.222H9.48v-1.222L13.259,56.893z"
  />
</svg>
