<svg version="1.1" xmlns="http://www.w3.org/2000/svg" width="64px" height="64px" viewBox="0 0 64 64">
<path class="svg-path" fill="#FFFFFF"
      d="M14.08,0C6.315,0.027,0.028,6.314,0,14.08v35.838c-0.005,1.385,0.444,2.735,1.28,3.84v3.84
	c0.011,2.116,1.724,3.829,3.84,3.84h5.12c2.116-0.013,3.829-1.725,3.84-3.84v-1.279h14.08v-2.561H6.4c-2.122,0-3.84-1.72-3.84-3.84
	V14.08C2.575,7.723,7.724,2.575,14.08,2.56h20.479c6.356,0.017,11.505,5.165,11.52,11.52v17.919h2.56V14.08
	C48.61,6.316,42.323,0.029,34.559,0H14.08z M15.36,3.84c-1.359-0.055-2.505,1.001-2.56,2.358c-0.002,0.068-0.002,0.135,0,0.201v2.56
	c-0.054,1.361,1.006,2.507,2.366,2.56c0.065,0.002,0.13,0.002,0.194,0h19.199c1.361,0.052,2.508-1.007,2.56-2.369
	c0.003-0.064,0.003-0.127,0-0.191v-2.56c0.056-1.358-1.002-2.505-2.36-2.56c-0.066-0.002-0.133-0.002-0.199,0H15.36z M15.36,6.399
	h19.199v2.56H15.36V6.399z M8.96,12.799c-2.082-0.038-3.802,1.62-3.84,3.704c-0.001,0.045-0.001,0.091,0,0.136v16.639
	c-0.038,2.084,1.623,3.804,3.706,3.84c0.044,0.002,0.089,0.002,0.134,0h22.919l1.4-2.56H8.96c-0.666,0.04-1.24-0.468-1.28-1.135
	c-0.002-0.048-0.002-0.097,0-0.146V16.639c-0.04-0.666,0.467-1.24,1.135-1.28c0.049-0.002,0.097-0.002,0.145,0h30.719
	c0.666-0.04,1.239,0.469,1.279,1.135c0.003,0.049,0.003,0.098,0,0.145v15.36h2.561v-15.36c0.037-2.083-1.62-3.802-3.702-3.84
	c-0.047,0-0.092,0-0.138,0H8.96z M40.438,34.559c-2.533,0.005-4.83,1.489-5.879,3.794v0.046l-3.359,7.399v0.079
	c-0.317,0.803-0.48,1.657-0.48,2.521v13.04c-0.056,1.357,0.999,2.504,2.356,2.561c0.067,0.002,0.137,0.002,0.204,0h3.839
	c1.359,0.055,2.505-1.003,2.561-2.361c0.002-0.066,0.002-0.133,0-0.199v-1.279h15.359v1.279c-0.057,1.357,0.999,2.504,2.356,2.561
	c0.067,0.002,0.136,0.002,0.203,0h3.84c1.359,0.055,2.505-1.003,2.561-2.361c0.002-0.066,0.002-0.133,0-0.199V48.394
	c0.003-0.862-0.16-1.718-0.48-2.521v-0.078l-3.359-7.396v-0.042c-1.048-2.308-3.347-3.791-5.88-3.798H40.438z M40.438,37.118h13.841
	c1.549-0.025,2.957,0.892,3.559,2.319l1.041,2.316v1.765c0,0.707-0.572,1.28-1.28,1.28H37.118c-0.707,0-1.279-0.573-1.279-1.28
	v-1.762l1.038-2.318C37.479,38.011,38.889,37.094,40.438,37.118z M10.88,39.679c-3.181,0-5.76,2.578-5.76,5.76
	c0,3.181,2.579,5.76,5.76,5.76s5.76-2.579,5.76-5.76C16.63,42.262,14.056,39.689,10.88,39.679z M10.88,42.238
	c1.768,0,3.2,1.433,3.2,3.2s-1.433,3.2-3.2,3.2c-1.767,0-3.2-1.433-3.2-3.2c-0.011-1.756,1.405-3.188,3.161-3.2
	C10.854,42.238,10.868,42.238,10.88,42.238z M33.997,45.798c0.734,0.986,1.893,1.565,3.121,1.561h20.479
	c1.229,0.005,2.387-0.574,3.119-1.559l0.441,0.998c0,0.013,0,0.029,0,0.043c0.194,0.495,0.291,1.025,0.279,1.558v9.199H33.279v-9.2
	c0.008-0.53,0.102-1.058,0.279-1.56c0-0.011,0-0.029,0-0.041L33.997,45.798z M38.398,49.918c-1.414,0-2.56,1.146-2.56,2.561
	c0,1.413,1.146,2.56,2.56,2.56s2.56-1.146,2.56-2.56C40.958,51.064,39.813,49.918,38.398,49.918z M56.318,49.918
	c-1.414,0-2.561,1.146-2.561,2.561c0,1.413,1.146,2.56,2.561,2.56c1.413,0,2.56-1.146,2.56-2.56
	C58.878,51.064,57.731,49.918,56.318,49.918z M3.84,55.758c0.805,0.364,1.677,0.555,2.56,0.561h5.12v1.279
	c0,0.708-0.572,1.28-1.28,1.28H5.12c-0.708,0-1.28-0.572-1.28-1.28v-1.842V55.758z M33.279,60.158h3.839v1.279h-3.839V60.158z
	 M57.598,60.158h3.84v1.279h-3.84V60.158z"
/>
</svg>
