<svg version="1.1" xmlns="http://www.w3.org/2000/svg" width="64px" height="64px" viewBox="0 0 64 64">
<path fill="#FFFFFF"
			d="M64,41.839c-0.053,5.143-4.254,9.274-9.396,9.241c-1.001-0.002-1.996-0.163-2.948-0.478v7.198
	h10.087v2.258H1.138v-2.252h4.489v-4.481l-5.109-1.372c-0.195-0.018-0.361-0.147-0.425-0.331c-0.1-0.204-0.12-0.437-0.056-0.653
	l6.087-19.642c0.099-0.346,0.46-0.546,0.806-0.447c0.217,0.063,0.386,0.231,0.447,0.447l6.054,19.562
	c0.047,0.108,0.07,0.226,0.069,0.345c0.032,0.376-0.243,0.708-0.619,0.748l0,0l-5.009,1.344v4.48h19.079V43.139
	C16.146,42.219,8.132,32.716,9.052,21.912C9.972,11.107,19.475,3.094,30.279,4.013c9.633,0.82,17.235,8.53,17.92,18.174
	c0.757-0.193,1.535-0.292,2.316-0.295c5.097-0.093,9.303,3.964,9.396,9.061c0.018,1.013-0.131,2.022-0.441,2.986
	C62.27,35.588,63.99,38.592,64,41.839z M10.374,50.502L10.374,50.502c0.185-0.014,0.323-0.176,0.31-0.361
	c-0.001-0.001-0.001-0.003-0.001-0.005c0-0.058-0.011-0.114-0.034-0.168L7.089,37.36c-0.053-0.172-0.237-0.27-0.41-0.216
	c-0.103,0.032-0.184,0.113-0.216,0.216L2.829,50.005c-0.032,0.106-0.022,0.221,0.028,0.32c0.034,0.09,0.116,0.152,0.211,0.161
	l3.008,0.818h1.346L10.374,50.502z M29.209,57.797h20.187v-7.199c-0.955,0.318-1.956,0.48-2.963,0.482
	c-5.146,0.038-9.351-4.097-9.397-9.241c0-0.184,0.025-0.361,0.036-0.543c-2.462,1.173-5.141,1.818-7.867,1.895v14.611L29.209,57.797
	z M28.634,6.165c-9.616-0.004-17.416,7.788-17.42,17.403c-0.003,8.971,6.809,16.477,15.736,17.339v-4.912l-6.724-6.734l1.759-1.75
	l4.965,4.971v-3.367l0,0V24.13h2.254v2.726l1.583-1.587l1.754,1.757l-3.337,3.344V40.97c9.611-0.158,17.274-8.078,17.116-17.688
	C46.164,13.67,38.245,6.007,28.634,6.165z M57.412,35.626l-1.153-0.509l0.53-1.122c0.428-0.895,0.65-1.874,0.653-2.865
	c-0.029-3.793-3.129-6.845-6.922-6.814c-0.786,0.005-1.565,0.147-2.304,0.417c-0.206,3.648-1.434,7.167-3.542,10.151l0.112,0.225
	l-0.411,0.182c-1.251,1.682-2.76,3.152-4.473,4.357c-0.25,0.706-0.379,1.448-0.384,2.197c0.051,3.811,3.181,6.858,6.991,6.807
	c1.003-0.013,1.99-0.245,2.895-0.68v-1.875l-4.478-4.489l1.749-1.75l2.72,2.725v-3.867h2.255v9.27
	c0.922,0.437,1.928,0.667,2.948,0.673c3.753,0.065,6.847-2.923,6.912-6.675C61.561,39.229,59.941,36.719,57.412,35.626z"
/>
</svg>
