<?xml version="1.0" encoding="UTF-8"?> <svg xmlns="http://www.w3.org/2000/svg" height="512px" viewBox="0 0 64 64" width="512px" class=""> <g> <rect fill="#d8d7da" height="54" rx="2" width="42" x="11" y="7" data-original="#D8D7DA" class=""></rect> <rect fill="#e6e7e8" height="54" rx="2" width="42" x="7" y="3" data-original="#E6E7E8" class=""></rect> <path d="m11 59h38a2.006 2.006 0 0 0 2-2v-50h-2v48a2.006 2.006 0 0 1 -2 2h-36z" fill="#c6c5ca" data-original="#C6C5CA" class=""></path> <path d="m17 3v7l-2-3-2 3v-7z" fill="#ff5023" data-original="#FF5023" class="" style="fill:#FF5023"></path> <path d="m49 40h2v2h-2z" fill="#acabb1" data-original="#ACABB1" class=""></path> <path d="m51 40h2v2h-2z" fill="#c6c5ca" data-original="#C6C5CA" class=""></path> <path d="m49 22.71v32.29a2.006 2.006 0 0 1 -2 2h-34.49a122.174 122.174 0 0 0 20.35-15c.71-.64 1.42-1.31 2.12-2a88.167 88.167 0 0 0 14.02-17.29z" fill="#e0e0e2" data-original="#E0E0E2" class=""></path> <path d="m49 40v2h-30a2.006 2.006 0 0 1 -2-2z" fill="#d1d3d4" data-original="#D1D3D4" class=""></path> <path d="m49 40v2h-16.14c.71-.64 1.42-1.31 2.12-2z" fill="#bcbec0" data-original="#BCBEC0" class=""></path> <rect fill="#96c8ef" height="24" rx="2" width="42" x="15" y="16" data-original="#96C8EF" class="" style="fill:#FF5023" data-old_color="#96c8ef"></rect> <path d="m42 23v11h2v-6h4v-2h-4v-2h5v-2h-6a1 1 0 0 0 -1 1z" data-original="#000000" class="active-path" style="fill:#FFFFFF" data-old_color="#000000"></path> <path d="m27 22h-4a1 1 0 0 0 -1 1v11h2v-5h3a3 3 0 0 0 3-3v-1a3 3 0 0 0 -3-3zm1 4a1 1 0 0 1 -1 1h-3v-3h3a1 1 0 0 1 1 1z" data-original="#000000" class="active-path" style="fill:#FFFFFF" data-old_color="#000000"></path> <path d="m37 22h-4a1 1 0 0 0 -1 1v10a1 1 0 0 0 1 1h4a3 3 0 0 0 3-3v-6a3 3 0 0 0 -3-3zm1 9a1 1 0 0 1 -1 1h-3v-8h3a1 1 0 0 1 1 1z" data-original="#000000" class="active-path" style="fill:#FFFFFF" data-old_color="#000000"></path> <path d="m55 15h-1v-6a3 3 0 0 0 -3-3h-1v-1a3 3 0 0 0 -3-3h-38a3 3 0 0 0 -3 3v50a3 3 0 0 0 3 3h1v1a3 3 0 0 0 3 3h38a3 3 0 0 0 3-3v-18h1a3 3 0 0 0 3-3v-20a3 3 0 0 0 -3-3zm-4-7a1 1 0 0 1 1 1v6h-2v-7zm-37-4h2v2.7l-.168-.252a1.039 1.039 0 0 0 -1.664 0l-.168.252zm-6 51v-50a1 1 0 0 1 1-1h3v6a1 1 0 0 0 1.832.555l1.168-1.755 1.168 1.752a1 1 0 0 0 1.832-.552v-6h29a1 1 0 0 1 1 1v10h-31a3 3 0 0 0 -3 3v20a3 3 0 0 0 3 3h31v14a1 1 0 0 1 -1 1h-38a1 1 0 0 1 -1-1zm44 4a1 1 0 0 1 -1 1h-38a1 1 0 0 1 -1-1v-1h35a3 3 0 0 0 3-3v-14h2zm4-21a1 1 0 0 1 -1 1h-38a1 1 0 0 1 -1-1v-20a1 1 0 0 1 1-1h38a1 1 0 0 1 1 1z" data-original="#000000" class="active-path" style="fill:#FFFFFF" data-old_color="#000000"></path> </g> </svg> 